<svg width="279" height="283" viewBox="0 0 279 283" fill="none" xmlns="http://www.w3.org/2000/svg">
<g filter="url(#filter0_d_69_57)">
<path d="M135.875 271C210.503 271 271 210.503 271 135.875C271 61.2477 210.503 0.750244 135.875 0.750244C61.2477 0.750244 0.750183 61.2477 0.750183 135.875C0.750183 210.503 61.2477 271 135.875 271Z" fill="#EF5350"/>
<path d="M176.413 215.599C150.288 193.979 121.462 193.979 95.3377 215.599C92.1848 218.301 89.4823 213.797 91.7343 209.743C99.8418 194.429 115.606 180.466 135.875 180.466C156.144 180.466 172.359 194.429 180.016 209.743C182.268 213.347 179.566 217.851 176.413 215.599Z" fill="#302424"/>
<path d="M37.6844 103.896C30.9281 125.065 40.3869 148.937 61.5565 158.396C82.2756 168.305 106.598 160.648 118.759 141.731L87.6806 107.049L37.6844 103.896Z" fill="white"/>
<path d="M55.7011 107.949C49.3953 121.011 55.2507 136.776 68.3128 142.631C81.3748 148.937 97.1394 143.082 102.995 130.02C107.499 121.462 59.7549 99.3913 55.7011 107.949Z" fill="#302424"/>
<path d="M37.6844 103.896C44.891 99.3915 53.449 97.1394 62.0069 97.1394C70.5648 97.1394 79.1227 99.3915 87.2302 102.995C94.8873 106.598 102.094 112.003 107.949 118.309C113.354 125.065 117.859 132.722 118.759 141.28C112.904 135.425 107.049 130.47 100.743 125.966C94.4369 121.462 88.131 117.859 81.8252 115.156C75.0689 112.003 68.3127 109.751 61.106 107.499C52.9985 106.148 45.7919 104.796 37.6844 103.896Z" fill="#302424"/>
<path d="M234.066 103.896C240.822 125.065 231.363 148.937 210.194 158.396C189.475 168.305 165.152 160.648 152.991 141.731L184.07 107.049L234.066 103.896Z" fill="white"/>
<path d="M216.049 107.949C222.355 121.011 216.5 136.776 203.438 142.631C190.375 148.937 174.611 143.082 168.755 130.02C164.251 121.462 211.995 99.3913 216.049 107.949Z" fill="#302424"/>
<path d="M234.066 103.896C226.859 99.3915 218.301 97.1394 209.743 97.1394C201.185 97.1394 192.627 99.3915 184.52 102.995C176.863 106.598 169.656 112.003 163.801 118.309C158.396 125.065 153.892 132.722 152.991 141.28C158.846 135.425 164.702 130.47 171.007 125.966C177.313 121.462 183.619 117.859 189.925 115.156C196.681 112.003 203.437 109.751 210.644 107.499C218.752 106.148 225.958 104.796 234.066 103.896Z" fill="#302424"/>
</g>
<defs>
<filter id="filter0_d_69_57" x="0.750183" y="0.750244" width="278.25" height="282.25" filterUnits="userSpaceOnUse" color-interpolation-filters="sRGB">
<feFlood flood-opacity="0" result="BackgroundImageFix"/>
<feColorMatrix in="SourceAlpha" type="matrix" values="0 0 0 0 0 0 0 0 0 0 0 0 0 0 0 0 0 0 127 0" result="hardAlpha"/>
<feOffset dx="4" dy="8"/>
<feGaussianBlur stdDeviation="2"/>
<feComposite in2="hardAlpha" operator="out"/>
<feColorMatrix type="matrix" values="0 0 0 0 0 0 0 0 0 0 0 0 0 0 0 0 0 0 0.25 0"/>
<feBlend mode="normal" in2="BackgroundImageFix" result="effect1_dropShadow_69_57"/>
<feBlend mode="normal" in="SourceGraphic" in2="effect1_dropShadow_69_57" result="shape"/>
</filter>
</defs>
</svg>
