<svg width="278" height="282" viewBox="0 0 278 282" fill="none" xmlns="http://www.w3.org/2000/svg">
<g filter="url(#filter0_d_12_19)">
<path d="M270 135C270 209.7 209.7 270 135 270C60.3 270 0 209.7 0 135C0 60.3 60.3 0 135 0C209.7 0 270 60.3 270 135Z" fill="#FFDD67"/>
<path d="M211.5 162C211.5 158.4 209.25 153.9 203.4 152.55C187.65 149.4 164.7 146.7 135 146.7C105.3 146.7 82.35 149.85 66.6 152.55C60.75 153.9 58.5 158.4 58.5 162C58.5 194.85 83.7 227.7 135 227.7C186.3 227.7 211.5 194.85 211.5 162Z" fill="#664E27"/>
<path d="M119.25 112.05C110.7 89.1 98.0998 77.4 85.4998 77.4C72.8998 77.4 60.2998 89.1 51.7498 112.05C50.8498 114.3 55.3498 118.35 57.5998 116.1C65.6998 107.55 75.5998 103.95 85.4998 103.95C95.3998 103.95 105.3 107.55 113.4 116.1C116.1 118.35 120.15 114.3 119.25 112.05Z" fill="#664E27"/>
<path d="M217.8 112.05C209.25 89.1 196.65 77.4 184.05 77.4C171.45 77.4 158.85 89.1 150.3 112.05C149.4 114.3 153.9 118.35 156.15 116.1C164.25 107.55 174.15 103.95 184.05 103.95C194.4 103.95 203.85 107.55 211.95 116.1C214.2 118.35 218.7 114.3 217.8 112.05Z" fill="#664E27"/>
<path d="M192.15 163.35C182.25 161.55 161.55 158.85 135 158.85C108.45 158.85 87.7498 161.55 77.8498 163.35C71.9998 164.25 71.5498 166.5 71.9998 170.1C72.4498 171.9 72.4498 174.6 73.3498 177.3C73.7998 180 74.6998 181.35 79.1998 180.9C87.7498 180 182.7 180 191.25 180.9C195.75 181.35 196.2 180 197.1 177.3C197.55 174.6 198 172.35 198.45 170.1C198.45 166.5 198 164.25 192.15 163.35Z" fill="white"/>
<path d="M270 135C270 209.7 209.7 270 135 270C60.3 270 0 209.7 0 135C0 60.3 60.3 0 135 0C209.7 0 270 60.3 270 135Z" fill="#FFDD67"/>
<path d="M211.5 162C211.5 158.4 209.25 153.9 203.4 152.55C187.65 149.4 164.7 146.7 135 146.7C105.3 146.7 82.35 149.85 66.6 152.55C60.75 153.9 58.5 158.4 58.5 162C58.5 194.85 83.7 227.7 135 227.7C186.3 227.7 211.5 194.85 211.5 162Z" fill="#664E27"/>
<path d="M119.25 112.05C110.7 89.1 98.0998 77.4 85.4998 77.4C72.8998 77.4 60.2998 89.1 51.7498 112.05C50.8498 114.3 55.3498 118.35 57.5998 116.1C65.6998 107.55 75.5998 103.95 85.4998 103.95C95.3998 103.95 105.3 107.55 113.4 116.1C116.1 118.35 120.15 114.3 119.25 112.05Z" fill="#664E27"/>
<path d="M217.8 112.05C209.25 89.1 196.65 77.4 184.05 77.4C171.45 77.4 158.85 89.1 150.3 112.05C149.4 114.3 153.9 118.35 156.15 116.1C164.25 107.55 174.15 103.95 184.05 103.95C194.4 103.95 203.85 107.55 211.95 116.1C214.2 118.35 218.7 114.3 217.8 112.05Z" fill="#664E27"/>
<path d="M192.15 163.35C182.25 161.55 161.55 158.85 135 158.85C108.45 158.85 87.7498 161.55 77.8498 163.35C71.9998 164.25 71.5498 166.5 71.9998 170.1C72.4498 171.9 72.4498 174.6 73.3498 177.3C73.7998 180 74.6998 180.9 79.1998 180.9H191.25C195.75 180.9 196.2 180 197.1 177.3C197.55 174.6 198 172.35 198.45 170.1C198.45 166.5 198 164.25 192.15 163.35Z" fill="white"/>
</g>
<defs>
<filter id="filter0_d_12_19" x="0" y="0" width="278" height="282" filterUnits="userSpaceOnUse" color-interpolation-filters="sRGB">
<feFlood flood-opacity="0" result="BackgroundImageFix"/>
<feColorMatrix in="SourceAlpha" type="matrix" values="0 0 0 0 0 0 0 0 0 0 0 0 0 0 0 0 0 0 127 0" result="hardAlpha"/>
<feOffset dx="4" dy="8"/>
<feGaussianBlur stdDeviation="2"/>
<feComposite in2="hardAlpha" operator="out"/>
<feColorMatrix type="matrix" values="0 0 0 0 0 0 0 0 0 0 0 0 0 0 0 0 0 0 0.25 0"/>
<feBlend mode="normal" in2="BackgroundImageFix" result="effect1_dropShadow_12_19"/>
<feBlend mode="normal" in="SourceGraphic" in2="effect1_dropShadow_12_19" result="shape"/>
</filter>
</defs>
</svg>
