<svg width="343" height="218" viewBox="0 0 343 218" fill="none" xmlns="http://www.w3.org/2000/svg">
<g clip-path="url(#clip0_8_20)">
<g filter="url(#filter0_d_8_20)">
<path d="M308.7 0H34.3C15.3566 0 0 9.76019 0 21.8V152.6C0 164.64 15.3566 174.4 34.3 174.4H308.7C327.643 174.4 343 164.64 343 152.6V21.8C343 9.76019 327.643 0 308.7 0Z" fill="#2F88FF"/>
</g>
<path d="M262.9 152.6H160V218L262.9 152.6Z" fill="#2F88FF"/>
<g filter="url(#filter1_d_8_20)">
<path d="M64.6542 83.72C62.7049 83.72 60.8009 82.0087 58.9422 78.586C57.4235 75.7753 56.0409 72.3187 54.7942 68.216C53.5702 64.1133 52.3575 59.4327 51.1562 54.174L57.3102 53.358C57.9449 56.3953 58.6362 59.3193 59.3842 62.13C60.1549 64.918 60.9369 67.4453 61.7302 69.712C62.5462 71.956 63.3282 73.792 64.0762 75.22C64.2575 75.5827 64.4275 75.8887 64.5862 76.138C64.7675 76.3647 64.8809 76.478 64.9262 76.478C65.0169 76.478 65.1302 76.376 65.2662 76.172C65.4249 75.968 65.6402 75.6053 65.9122 75.084C66.6829 73.7013 67.5102 71.8993 68.3942 69.678C69.3009 67.4567 70.2189 64.9407 71.1482 62.13C72.0775 59.3193 72.9502 56.3613 73.7662 53.256L79.8182 54.378C78.7982 57.982 77.7555 61.3253 76.6902 64.408C75.6249 67.468 74.5822 70.1993 73.5622 72.602C72.5422 74.982 71.6015 76.9767 70.7402 78.586C68.9042 82.0087 66.8755 83.72 64.6542 83.72ZM92.3198 83.788C90.5065 83.788 88.9198 83.4933 87.5598 82.904C86.2225 82.3147 85.1118 81.51 84.2278 80.49C83.3438 79.4473 82.6865 78.2573 82.2558 76.92C81.8252 75.5827 81.6098 74.1773 81.6098 72.704C81.6098 71.208 81.8705 69.8253 82.3918 68.556C82.9358 67.264 83.6725 66.142 84.6018 65.19C85.5538 64.238 86.6645 63.5013 87.9338 62.98C89.2032 62.436 90.5858 62.164 92.0818 62.164C93.6458 62.164 95.0965 62.436 96.4338 62.98C97.7712 63.524 98.9385 64.2833 99.9358 65.258C100.933 66.2327 101.704 67.3773 102.248 68.692C102.815 70.0067 103.098 71.4347 103.098 72.976C103.098 76.3987 102.157 79.062 100.276 80.966C98.3945 82.8473 95.7425 83.788 92.3198 83.788ZM92.2858 78.28C93.9405 78.28 95.1985 77.8153 96.0598 76.886C96.9438 75.9567 97.3858 74.6193 97.3858 72.874C97.3858 71.31 96.9098 70.052 95.9578 69.1C95.0058 68.148 93.7592 67.672 92.2178 67.672C91.2885 67.672 90.4385 67.9213 89.6678 68.42C88.8972 68.896 88.2738 69.542 87.7978 70.358C87.3445 71.1513 87.1178 72.0353 87.1178 73.01C87.1178 73.8713 87.2878 74.71 87.6278 75.526C87.9905 76.342 88.5572 77.0107 89.3278 77.532C90.0985 78.0307 91.0845 78.28 92.2858 78.28ZM115.759 83.754C113.855 83.754 112.098 83.3573 110.489 82.564C108.88 81.7707 107.588 80.6373 106.613 79.164C105.638 77.668 105.151 75.8887 105.151 73.826C105.151 71.514 105.604 69.4853 106.511 67.74C107.418 65.9947 108.687 64.646 110.319 63.694C111.951 62.7193 113.855 62.232 116.031 62.232C118.116 62.232 119.884 62.6627 121.335 63.524C122.786 64.3627 124.078 65.7 125.211 67.536L120.485 70.8C119.85 69.78 119.204 69.0093 118.547 68.488C117.89 67.944 116.994 67.672 115.861 67.672C114.32 67.672 113.073 68.216 112.121 69.304C111.169 70.3693 110.693 71.7973 110.693 73.588C110.693 74.6307 110.942 75.4807 111.441 76.138C111.962 76.7953 112.597 77.2827 113.345 77.6C114.093 77.9173 114.796 78.076 115.453 78.076C116.133 78.076 116.79 77.9967 117.425 77.838C118.06 77.6567 118.66 77.2713 119.227 76.682C119.794 76.0927 120.304 75.1973 120.757 73.996L125.857 76.716C125.177 77.9627 124.418 79.1187 123.579 80.184C122.74 81.2493 121.698 82.1107 120.451 82.768C119.227 83.4253 117.663 83.754 115.759 83.754ZM138.377 83.72C136.201 83.72 134.285 83.2893 132.631 82.428C130.999 81.5893 129.718 80.4107 128.789 78.892C127.882 77.3733 127.429 75.6167 127.429 73.622C127.429 72.4207 127.633 71.1627 128.041 69.848C128.449 68.5107 129.106 67.264 130.013 66.108C130.919 64.952 132.109 64.0113 133.583 63.286C135.079 62.5607 136.892 62.198 139.023 62.198C140.564 62.198 141.856 62.368 142.899 62.708C143.964 63.048 144.825 63.49 145.483 64.034C146.163 64.578 146.673 65.156 147.013 65.768C147.375 66.38 147.613 66.9693 147.727 67.536C147.863 68.08 147.931 68.5333 147.931 68.896C147.931 71.0947 147.001 72.7947 145.143 73.996C143.307 75.1747 140.7 75.764 137.323 75.764C136.552 75.764 135.815 75.73 135.113 75.662C134.433 75.594 133.798 75.5147 133.209 75.424C133.639 76.5573 134.353 77.396 135.351 77.94C136.348 78.4613 137.379 78.722 138.445 78.722C139.986 78.722 141.346 78.45 142.525 77.906C143.703 77.3393 144.814 76.478 145.857 75.322L148.883 79.674C148.157 80.2633 147.341 80.8753 146.435 81.51C145.551 82.1447 144.463 82.666 143.171 83.074C141.879 83.5047 140.281 83.72 138.377 83.72ZM139.125 67.298C137.787 67.298 136.609 67.638 135.589 68.318C134.569 68.998 133.821 69.8933 133.345 71.004C133.911 71.0947 134.467 71.174 135.011 71.242C135.577 71.2873 136.133 71.31 136.677 71.31C137.175 71.31 137.742 71.2647 138.377 71.174C139.034 71.0833 139.669 70.9473 140.281 70.766C140.915 70.5847 141.437 70.358 141.845 70.086C142.253 69.7913 142.457 69.4513 142.457 69.066C142.457 68.8847 142.366 68.658 142.185 68.386C142.003 68.114 141.675 67.8647 141.199 67.638C140.723 67.4113 140.031 67.298 139.125 67.298ZM131.747 57.642C132.177 57.234 132.665 56.7353 133.209 56.146C133.775 55.534 134.342 54.9107 134.909 54.276C135.475 53.6187 135.997 52.9953 136.473 52.406C136.971 51.794 137.391 51.284 137.731 50.876C138.32 51.5107 138.977 52.2133 139.703 52.984C140.451 53.732 141.221 54.4687 142.015 55.194C142.808 55.9193 143.556 56.5767 144.259 57.166L142.015 60.158C141.267 59.614 140.575 59.0587 139.941 58.492C139.306 57.9027 138.637 57.268 137.935 56.588C137.345 57.2907 136.79 57.914 136.269 58.458C135.77 58.9793 135.192 59.5573 134.535 60.192C134.489 60.1467 134.319 59.9993 134.025 59.75C133.753 59.478 133.435 59.1833 133.073 58.866C132.71 58.526 132.393 58.2427 132.121 58.016C131.871 57.7667 131.747 57.642 131.747 57.642ZM159.558 90.656C159.4 88.8427 159.286 87.018 159.218 85.182C159.15 83.346 159.116 81.2267 159.116 78.824C159.116 75.9 159.162 72.9873 159.252 70.086C159.343 67.1847 159.479 64.5327 159.66 62.13L165.508 62.3C165.44 62.8213 165.384 63.3767 165.338 63.966C166.154 63.422 167.027 63.0253 167.956 62.776C168.908 62.5267 169.872 62.402 170.846 62.402C172.093 62.402 173.306 62.606 174.484 63.014C175.663 63.3993 176.728 64.0227 177.68 64.884C178.632 65.7227 179.38 66.8107 179.924 68.148C180.491 69.4853 180.774 71.0947 180.774 72.976C180.774 74.8347 180.491 76.4553 179.924 77.838C179.358 79.2207 178.598 80.354 177.646 81.238C176.694 82.1447 175.629 82.8133 174.45 83.244C173.272 83.6973 172.059 83.924 170.812 83.924C168.523 83.924 166.506 83.244 164.76 81.884C164.806 83.3347 164.874 84.7287 164.964 86.066C165.055 87.426 165.168 88.8087 165.304 90.214L159.558 90.656ZM169.928 68.046C167.684 68.046 165.996 69.1453 164.862 71.344C164.794 72.704 164.749 74.0867 164.726 75.492C165.27 76.2173 165.973 76.852 166.834 77.396C167.696 77.9173 168.795 78.178 170.132 78.178C173.328 78.178 174.926 76.3533 174.926 72.704C174.926 71.7293 174.745 70.936 174.382 70.324C174.02 69.712 173.566 69.2473 173.022 68.93C172.478 68.59 171.923 68.3633 171.356 68.25C170.79 68.114 170.314 68.046 169.928 68.046ZM191.793 83.686C190.093 83.686 188.552 83.244 187.169 82.36C185.786 81.4987 184.687 80.3313 183.871 78.858C183.078 77.362 182.681 75.696 182.681 73.86C182.681 72.1373 182.998 70.5847 183.633 69.202C184.268 67.7967 185.129 66.5953 186.217 65.598C187.328 64.6007 188.586 63.8413 189.991 63.32C191.396 62.776 192.87 62.504 194.411 62.504C195.703 62.504 196.972 62.6853 198.219 63.048C198.31 62.572 198.389 62.096 198.457 61.62L204.271 62.606C204.112 63.0367 203.954 63.6827 203.795 64.544C203.636 65.4053 203.5 66.3687 203.387 67.434C203.296 68.4993 203.217 69.5647 203.149 70.63C203.081 71.6953 203.047 72.6587 203.047 73.52C203.047 74.2227 203.092 74.914 203.183 75.594C203.296 76.2513 203.523 76.7953 203.863 77.226C204.203 77.634 204.724 77.838 205.427 77.838H205.903L205.053 83.754C203.557 83.754 202.322 83.4933 201.347 82.972C200.372 82.4733 199.59 81.7933 199.001 80.932C198.026 82.02 196.916 82.7453 195.669 83.108C194.422 83.4933 193.13 83.686 191.793 83.686ZM188.257 74.54C188.37 75.628 188.812 76.5007 189.583 77.158C190.376 77.7927 191.374 78.11 192.575 78.11C193.731 78.11 194.694 77.804 195.465 77.192C196.236 76.5573 196.87 75.696 197.369 74.608C197.346 74.2453 197.335 73.8713 197.335 73.486C197.335 72.6927 197.358 71.8767 197.403 71.038C197.448 70.1993 197.505 69.372 197.573 68.556C196.621 68.1933 195.624 68.012 194.581 68.012C193.357 68.012 192.258 68.2613 191.283 68.76C190.331 69.236 189.583 69.9047 189.039 70.766C188.495 71.6273 188.223 72.6247 188.223 73.758C188.223 73.894 188.223 74.03 188.223 74.166C188.223 74.302 188.234 74.4267 188.257 74.54ZM207.892 83.652C207.983 81.7707 208.051 79.8893 208.096 78.008C208.142 76.1267 208.164 74.268 208.164 72.432C208.142 70.7547 208.108 69.1 208.062 67.468C208.04 65.8133 207.983 64.2153 207.892 62.674L213.604 62.504C213.627 63.3427 213.661 64.204 213.706 65.088C214.432 64.1813 215.27 63.456 216.222 62.912C217.197 62.3453 218.308 62.062 219.554 62.062C220.03 62.062 220.642 62.13 221.39 62.266C222.138 62.402 222.898 62.6627 223.668 63.048L223.022 68.794C222.456 68.454 221.844 68.216 221.186 68.08C220.552 67.9213 220.019 67.842 219.588 67.842C218.138 67.842 216.902 68.4993 215.882 69.814C214.885 71.106 214.205 72.908 213.842 75.22C213.842 76.8067 213.82 78.3253 213.774 79.776C213.752 81.204 213.695 82.496 213.604 83.652H207.892ZM235.33 83.72C233.154 83.72 231.238 83.2893 229.584 82.428C227.952 81.5893 226.671 80.4107 225.742 78.892C224.835 77.3733 224.382 75.6167 224.382 73.622C224.382 72.4207 224.586 71.1627 224.994 69.848C225.402 68.5107 226.059 67.264 226.966 66.108C227.872 64.952 229.062 64.0113 230.536 63.286C232.032 62.5607 233.845 62.198 235.976 62.198C237.517 62.198 238.809 62.368 239.852 62.708C240.917 63.048 241.778 63.49 242.436 64.034C243.116 64.578 243.626 65.156 243.966 65.768C244.328 66.38 244.566 66.9693 244.68 67.536C244.816 68.08 244.884 68.5333 244.884 68.896C244.884 71.0947 243.954 72.7947 242.096 73.996C240.26 75.1747 237.653 75.764 234.276 75.764C233.505 75.764 232.768 75.73 232.066 75.662C231.386 75.594 230.751 75.5147 230.162 75.424C230.592 76.5573 231.306 77.396 232.304 77.94C233.301 78.4613 234.332 78.722 235.398 78.722C236.939 78.722 238.299 78.45 239.478 77.906C240.656 77.3393 241.767 76.478 242.81 75.322L245.836 79.674C245.11 80.2633 244.294 80.8753 243.388 81.51C242.504 82.1447 241.416 82.666 240.124 83.074C238.832 83.5047 237.234 83.72 235.33 83.72ZM236.078 67.298C234.74 67.298 233.562 67.638 232.542 68.318C231.522 68.998 230.774 69.8933 230.298 71.004C230.864 71.0947 231.42 71.174 231.964 71.242C232.53 71.2873 233.086 71.31 233.63 71.31C234.128 71.31 234.695 71.2647 235.33 71.174C235.987 71.0833 236.622 70.9473 237.234 70.766C237.868 70.5847 238.39 70.358 238.798 70.086C239.206 69.7913 239.41 69.4513 239.41 69.066C239.41 68.8847 239.319 68.658 239.138 68.386C238.956 68.114 238.628 67.8647 238.152 67.638C237.676 67.4113 236.984 67.298 236.078 67.298ZM258.466 83.754C256.562 83.754 254.805 83.3573 253.196 82.564C251.587 81.7707 250.295 80.6373 249.32 79.164C248.345 77.668 247.858 75.8887 247.858 73.826C247.858 71.514 248.311 69.4853 249.218 67.74C250.125 65.9947 251.394 64.646 253.026 63.694C254.658 62.7193 256.562 62.232 258.738 62.232C260.823 62.232 262.591 62.6627 264.042 63.524C265.493 64.3627 266.785 65.7 267.918 67.536L263.192 70.8C262.557 69.78 261.911 69.0093 261.254 68.488C260.597 67.944 259.701 67.672 258.568 67.672C257.027 67.672 255.78 68.216 254.828 69.304C253.876 70.3693 253.4 71.7973 253.4 73.588C253.4 74.6307 253.649 75.4807 254.148 76.138C254.669 76.7953 255.304 77.2827 256.052 77.6C256.8 77.9173 257.503 78.076 258.16 78.076C258.84 78.076 259.497 77.9967 260.132 77.838C260.767 77.6567 261.367 77.2713 261.934 76.682C262.501 76.0927 263.011 75.1973 263.464 73.996L268.564 76.716C267.884 77.9627 267.125 79.1187 266.286 80.184C265.447 81.2493 264.405 82.1107 263.158 82.768C261.934 83.4253 260.37 83.754 258.466 83.754ZM281.084 83.72C278.908 83.72 276.992 83.2893 275.338 82.428C273.706 81.5893 272.425 80.4107 271.496 78.892C270.589 77.3733 270.136 75.6167 270.136 73.622C270.136 72.4207 270.34 71.1627 270.748 69.848C271.156 68.5107 271.813 67.264 272.72 66.108C273.626 64.952 274.816 64.0113 276.29 63.286C277.786 62.5607 279.599 62.198 281.73 62.198C283.271 62.198 284.563 62.368 285.606 62.708C286.671 63.048 287.532 63.49 288.19 64.034C288.87 64.578 289.38 65.156 289.72 65.768C290.082 66.38 290.32 66.9693 290.434 67.536C290.57 68.08 290.638 68.5333 290.638 68.896C290.638 71.0947 289.708 72.7947 287.85 73.996C286.014 75.1747 283.407 75.764 280.03 75.764C279.259 75.764 278.522 75.73 277.82 75.662C277.14 75.594 276.505 75.5147 275.916 75.424C276.346 76.5573 277.06 77.396 278.058 77.94C279.055 78.4613 280.086 78.722 281.152 78.722C282.693 78.722 284.053 78.45 285.232 77.906C286.41 77.3393 287.521 76.478 288.564 75.322L291.59 79.674C290.864 80.2633 290.048 80.8753 289.142 81.51C288.258 82.1447 287.17 82.666 285.878 83.074C284.586 83.5047 282.988 83.72 281.084 83.72ZM281.832 67.298C280.494 67.298 279.316 67.638 278.296 68.318C277.276 68.998 276.528 69.8933 276.052 71.004C276.618 71.0947 277.174 71.174 277.718 71.242C278.284 71.2873 278.84 71.31 279.384 71.31C279.882 71.31 280.449 71.2647 281.084 71.174C281.741 71.0833 282.376 70.9473 282.988 70.766C283.622 70.5847 284.144 70.358 284.552 70.086C284.96 69.7913 285.164 69.4513 285.164 69.066C285.164 68.8847 285.073 68.658 284.892 68.386C284.71 68.114 284.382 67.8647 283.906 67.638C283.43 67.4113 282.738 67.298 281.832 67.298ZM125.681 132.448C125.658 131.179 125.647 129.887 125.647 128.572C125.647 127.235 125.647 125.943 125.647 124.696V116.638C124.695 116.706 123.777 116.808 122.893 116.944C122.032 117.08 121.227 117.25 120.479 117.454L119.765 112.014C120.581 111.833 121.51 111.674 122.553 111.538C123.618 111.402 124.718 111.3 125.851 111.232C125.987 109.985 126.214 108.773 126.531 107.594C126.871 106.415 127.347 105.361 127.959 104.432C128.571 103.48 129.376 102.721 130.373 102.154C131.37 101.587 132.606 101.304 134.079 101.304C135.96 101.304 137.774 101.689 139.519 102.46L138.363 107.866C136.867 107.186 135.632 106.846 134.657 106.846C133.614 106.846 132.889 107.22 132.481 107.968C132.073 108.693 131.812 109.725 131.699 111.062C132.923 111.085 134.079 111.141 135.167 111.232C136.278 111.3 137.241 111.391 138.057 111.504L137.513 116.842C136.72 116.706 135.79 116.604 134.725 116.536C133.682 116.445 132.583 116.4 131.427 116.4C131.382 117.556 131.348 118.689 131.325 119.8C131.302 120.888 131.291 121.976 131.291 123.064C131.291 124.515 131.302 126.011 131.325 127.552C131.37 129.071 131.416 130.703 131.461 132.448H125.681ZM150.247 132.72C148.071 132.72 146.155 132.289 144.501 131.428C142.869 130.589 141.588 129.411 140.659 127.892C139.752 126.373 139.299 124.617 139.299 122.622C139.299 121.421 139.503 120.163 139.911 118.848C140.319 117.511 140.976 116.264 141.883 115.108C142.789 113.952 143.979 113.011 145.453 112.286C146.949 111.561 148.762 111.198 150.893 111.198C152.434 111.198 153.726 111.368 154.769 111.708C155.834 112.048 156.695 112.49 157.353 113.034C158.033 113.578 158.543 114.156 158.883 114.768C159.245 115.38 159.483 115.969 159.597 116.536C159.733 117.08 159.801 117.533 159.801 117.896C159.801 120.095 158.871 121.795 157.013 122.996C155.177 124.175 152.57 124.764 149.193 124.764C148.422 124.764 147.685 124.73 146.983 124.662C146.303 124.594 145.668 124.515 145.079 124.424C145.509 125.557 146.223 126.396 147.221 126.94C148.218 127.461 149.249 127.722 150.315 127.722C151.856 127.722 153.216 127.45 154.395 126.906C155.573 126.339 156.684 125.478 157.727 124.322L160.753 128.674C160.027 129.263 159.211 129.875 158.305 130.51C157.421 131.145 156.333 131.666 155.041 132.074C153.749 132.505 152.151 132.72 150.247 132.72ZM150.995 116.298C149.657 116.298 148.479 116.638 147.459 117.318C146.439 117.998 145.691 118.893 145.215 120.004C145.781 120.095 146.337 120.174 146.881 120.242C147.447 120.287 148.003 120.31 148.547 120.31C149.045 120.31 149.612 120.265 150.247 120.174C150.904 120.083 151.539 119.947 152.151 119.766C152.785 119.585 153.307 119.358 153.715 119.086C154.123 118.791 154.327 118.451 154.327 118.066C154.327 117.885 154.236 117.658 154.055 117.386C153.873 117.114 153.545 116.865 153.069 116.638C152.593 116.411 151.901 116.298 150.995 116.298ZM170.017 132.686C168.77 132.686 167.739 132.414 166.923 131.87C166.13 131.349 165.495 130.623 165.019 129.694C164.566 128.765 164.226 127.699 163.999 126.498C163.795 125.297 163.659 124.016 163.591 122.656C163.546 121.273 163.523 119.891 163.523 118.508C163.523 117.307 163.557 115.992 163.625 114.564C163.693 113.113 163.772 111.651 163.863 110.178C163.976 108.682 164.09 107.277 164.203 105.962C164.339 104.647 164.464 103.503 164.577 102.528L170.731 102.596C170.55 103.752 170.38 105.067 170.221 106.54C170.062 107.991 169.926 109.464 169.813 110.96C169.722 112.456 169.643 113.839 169.575 115.108C169.53 116.377 169.507 117.386 169.507 118.134C169.507 120.197 169.541 121.817 169.609 122.996C169.7 124.175 169.824 125.013 169.983 125.512C170.164 125.988 170.402 126.226 170.697 126.226C171.082 126.226 171.502 125.988 171.955 125.512C172.408 125.013 172.85 124.458 173.281 123.846L176.171 129.592C175.468 130.363 174.63 131.065 173.655 131.7C172.68 132.357 171.468 132.686 170.017 132.686ZM178.99 108.036C178.99 107.832 178.979 107.628 178.956 107.424C178.956 107.197 178.956 106.948 178.956 106.676C178.956 105.951 178.979 105.18 179.024 104.364C179.069 103.548 179.115 102.857 179.16 102.29L185.212 102.392C185.144 103.163 185.065 104.035 184.974 105.01C184.906 105.985 184.861 106.993 184.838 108.036H178.99ZM178.854 132.38C178.786 130.975 178.741 129.479 178.718 127.892C178.695 126.283 178.684 124.673 178.684 123.064C178.684 120.956 178.707 118.905 178.752 116.91C178.797 114.915 178.854 113.102 178.922 111.47L184.77 111.436C184.679 112.479 184.623 113.771 184.6 115.312C184.577 116.831 184.566 118.429 184.566 120.106C184.566 121.761 184.577 123.393 184.6 125.002C184.623 126.611 184.645 128.073 184.668 129.388C184.713 130.68 184.747 131.677 184.77 132.38H178.854ZM188.839 132.686L187.989 128.232C188.283 128.119 188.635 128.017 189.043 127.926C189.745 127.473 190.55 126.872 191.457 126.124C192.386 125.353 193.338 124.515 194.313 123.608C195.287 122.701 196.228 121.806 197.135 120.922C198.041 120.015 198.835 119.199 199.515 118.474C200.195 117.749 200.693 117.182 201.011 116.774C201.124 116.615 201.203 116.502 201.249 116.434C201.294 116.343 201.317 116.287 201.317 116.264C201.317 116.287 201.158 116.298 200.841 116.298C200.523 116.298 200.24 116.298 199.991 116.298C199.175 116.298 198.177 116.366 196.999 116.502C195.843 116.615 194.596 116.797 193.259 117.046C191.921 117.295 190.584 117.635 189.247 118.066L188.227 112.592C190.561 112.139 192.783 111.799 194.891 111.572C197.021 111.323 199.027 111.198 200.909 111.198C201.634 111.198 202.405 111.221 203.221 111.266C204.059 111.311 204.853 111.447 205.601 111.674C206.349 111.878 206.961 112.229 207.437 112.728C207.913 113.204 208.151 113.873 208.151 114.734C208.151 115.346 207.89 116.105 207.369 117.012C206.87 117.896 206.156 118.882 205.227 119.97C204.32 121.035 203.255 122.157 202.031 123.336C200.829 124.515 199.526 125.693 198.121 126.872C199.367 126.804 200.603 126.77 201.827 126.77C203.572 126.77 205.113 126.804 206.451 126.872C207.788 126.94 208.672 127.031 209.103 127.144L209.137 132.448C208.502 132.403 207.482 132.357 206.077 132.312C204.671 132.289 203.119 132.278 201.419 132.278C199.832 132.278 198.211 132.289 196.557 132.312C194.925 132.357 193.417 132.403 192.035 132.448C190.675 132.516 189.609 132.595 188.839 132.686ZM215.218 102.222L220.59 102.494C220.522 103.333 220.443 104.398 220.352 105.69C220.284 106.959 220.216 108.365 220.148 109.906C220.08 111.425 220.012 112.966 219.944 114.53C219.876 116.094 219.82 117.59 219.774 119.018C219.752 120.423 219.74 121.659 219.74 122.724C219.74 123.019 219.74 123.302 219.74 123.574C219.74 123.846 219.752 124.084 219.774 124.288L214.436 124.152C214.414 123.767 214.402 123.336 214.402 122.86C214.402 122.361 214.402 121.817 214.402 121.228C214.402 119.369 214.425 117.341 214.47 115.142C214.538 112.943 214.629 110.733 214.742 108.512C214.878 106.268 215.037 104.171 215.218 102.222ZM216.952 132.822C216.068 132.822 215.32 132.505 214.708 131.87C214.119 131.258 213.824 130.499 213.824 129.592C213.824 128.685 214.13 127.926 214.742 127.314C215.377 126.702 216.148 126.396 217.054 126.396C217.938 126.396 218.675 126.713 219.264 127.348C219.876 127.983 220.182 128.776 220.182 129.728C220.182 130.657 219.888 131.405 219.298 131.972C218.709 132.539 217.927 132.822 216.952 132.822Z" fill="white"/>
</g>
</g>
<defs>
<filter id="filter0_d_8_20" x="-2" y="0" width="351" height="182.4" filterUnits="userSpaceOnUse" color-interpolation-filters="sRGB">
<feFlood flood-opacity="0" result="BackgroundImageFix"/>
<feColorMatrix in="SourceAlpha" type="matrix" values="0 0 0 0 0 0 0 0 0 0 0 0 0 0 0 0 0 0 127 0" result="hardAlpha"/>
<feOffset dx="2" dy="4"/>
<feGaussianBlur stdDeviation="2"/>
<feComposite in2="hardAlpha" operator="out"/>
<feColorMatrix type="matrix" values="0 0 0 0 0 0 0 0 0 0 0 0 0 0 0 0 0 0 0.25 0"/>
<feBlend mode="normal" in2="BackgroundImageFix" result="effect1_dropShadow_8_20"/>
<feBlend mode="normal" in="SourceGraphic" in2="effect1_dropShadow_8_20" result="shape"/>
</filter>
<filter id="filter1_d_8_20" x="47.1562" y="50.876" width="248.433" height="89.946" filterUnits="userSpaceOnUse" color-interpolation-filters="sRGB">
<feFlood flood-opacity="0" result="BackgroundImageFix"/>
<feColorMatrix in="SourceAlpha" type="matrix" values="0 0 0 0 0 0 0 0 0 0 0 0 0 0 0 0 0 0 127 0" result="hardAlpha"/>
<feOffset dy="4"/>
<feGaussianBlur stdDeviation="2"/>
<feComposite in2="hardAlpha" operator="out"/>
<feColorMatrix type="matrix" values="0 0 0 0 0 0 0 0 0 0 0 0 0 0 0 0 0 0 0.25 0"/>
<feBlend mode="normal" in2="BackgroundImageFix" result="effect1_dropShadow_8_20"/>
<feBlend mode="normal" in="SourceGraphic" in2="effect1_dropShadow_8_20" result="shape"/>
</filter>
<clipPath id="clip0_8_20">
<rect width="343" height="218" fill="white"/>
</clipPath>
</defs>
</svg>
