<svg width="699" height="663" viewBox="0 0 699 663" fill="none" xmlns="http://www.w3.org/2000/svg">
<g filter="url(#filter0_d_5_11)">
<path d="M600.812 0.890625H90.1875C66.4879 0.890625 43.759 10.3053 27.0009 27.0634C10.2427 43.8215 0.828125 66.5504 0.828125 90.25V447.688C0.828125 471.387 10.2427 494.116 27.0009 510.874C43.759 527.632 66.4879 537.047 90.1875 537.047H600.812C612.547 537.047 624.167 534.736 635.009 530.245C645.85 525.754 655.701 519.172 663.999 510.874C672.297 502.576 678.879 492.725 683.37 481.884C687.861 471.042 690.172 459.422 690.172 447.688V90.25C690.172 78.5152 687.861 66.8952 683.37 56.0536C678.879 45.2121 672.297 35.3612 663.999 27.0634C655.701 18.7656 645.85 12.1834 635.009 7.69271C624.167 3.20198 612.547 0.890625 600.812 0.890625ZM613.578 447.688C613.578 451.073 612.233 454.32 609.839 456.714C607.445 459.108 604.198 460.453 600.812 460.453H90.1875C86.8018 460.453 83.5549 459.108 81.1608 456.714C78.7668 454.32 77.4219 451.073 77.4219 447.688V90.25C77.4219 86.8643 78.7668 83.6174 81.1608 81.2233C83.5549 78.8293 86.8018 77.4844 90.1875 77.4844H600.812C604.198 77.4844 607.445 78.8293 609.839 81.2233C612.233 83.6174 613.578 86.8643 613.578 90.25V447.688ZM485.922 613.641C485.922 623.798 481.887 633.539 474.705 640.721C467.523 647.903 457.782 651.938 447.625 651.938H243.375C233.218 651.938 223.477 647.903 216.295 640.721C209.113 633.539 205.078 623.798 205.078 613.641C205.078 603.484 209.113 593.743 216.295 586.561C223.477 579.379 233.218 575.344 243.375 575.344H447.625C457.782 575.344 467.523 579.379 474.705 586.561C481.887 593.743 485.922 603.484 485.922 613.641Z" fill="#2F88FF"/>
<path d="M90.1875 11.3906H600.812C611.168 11.3906 621.423 13.4304 630.991 17.3934C640.558 21.3565 649.252 27.1652 656.575 34.488C663.897 41.8108 669.706 50.5041 673.669 60.0718C677.632 69.6395 679.672 79.894 679.672 90.25V447.688C679.672 458.043 677.632 468.298 673.669 477.866C669.706 487.433 663.897 496.127 656.575 503.45C649.252 510.772 640.558 516.581 630.991 520.544C621.423 524.507 611.168 526.547 600.812 526.547H90.1875C69.2727 526.547 49.2145 518.239 34.4255 503.45C19.6365 488.661 11.3281 468.602 11.3281 447.688V90.25C11.3281 69.3352 19.6365 49.277 34.4255 34.488C49.2145 19.699 69.2727 11.3906 90.1875 11.3906ZM617.264 464.139C621.627 459.776 624.078 453.858 624.078 447.688V90.25C624.078 84.0796 621.627 78.1619 617.264 73.7987C612.901 69.4356 606.983 66.9844 600.812 66.9844H90.1875C84.0171 66.9844 78.0994 69.4356 73.7362 73.7987C69.3731 78.1619 66.9219 84.0796 66.9219 90.25V447.688C66.9219 453.858 69.3731 459.776 73.7362 464.139C78.0994 468.502 84.0171 470.953 90.1875 470.953H600.812C606.983 470.953 612.901 468.502 617.264 464.139ZM475.422 613.641C475.422 621.013 472.493 628.083 467.28 633.296C462.067 638.509 454.997 641.438 447.625 641.438H243.375C236.003 641.438 228.933 638.509 223.72 633.296C218.507 628.083 215.578 621.013 215.578 613.641C215.578 606.268 218.507 599.198 223.72 593.985C228.933 588.772 236.003 585.844 243.375 585.844H447.625C454.997 585.844 462.067 588.772 467.28 593.985C472.493 599.198 475.422 606.268 475.422 613.641Z" stroke="#28242E" stroke-width="21"/>
</g>
<defs>
<filter id="filter0_d_5_11" x="0.828125" y="0.890625" width="697.344" height="662.047" filterUnits="userSpaceOnUse" color-interpolation-filters="sRGB">
<feFlood flood-opacity="0" result="BackgroundImageFix"/>
<feColorMatrix in="SourceAlpha" type="matrix" values="0 0 0 0 0 0 0 0 0 0 0 0 0 0 0 0 0 0 127 0" result="hardAlpha"/>
<feOffset dx="4" dy="7"/>
<feGaussianBlur stdDeviation="2"/>
<feComposite in2="hardAlpha" operator="out"/>
<feColorMatrix type="matrix" values="0 0 0 0 0 0 0 0 0 0 0 0 0 0 0 0 0 0 0.25 0"/>
<feBlend mode="normal" in2="BackgroundImageFix" result="effect1_dropShadow_5_11"/>
<feBlend mode="normal" in="SourceGraphic" in2="effect1_dropShadow_5_11" result="shape"/>
</filter>
</defs>
</svg>
