<svg width="343" height="218" viewBox="0 0 343 218" fill="none" xmlns="http://www.w3.org/2000/svg">
<g clip-path="url(#clip0_8_35)">
<g filter="url(#filter0_d_8_35)">
<path d="M308.7 0H34.3C15.3566 0 0 9.76019 0 21.8V152.6C0 164.64 15.3566 174.4 34.3 174.4H308.7C327.643 174.4 343 164.64 343 152.6V21.8C343 9.76019 327.643 0 308.7 0Z" fill="#2F88FF"/>
</g>
<path d="M262.9 152.6H160V218L262.9 152.6Z" fill="#2F88FF"/>
<g filter="url(#filter1_d_8_35)">
<path d="M64.6542 83.72C62.7049 83.72 60.8009 82.0087 58.9422 78.586C57.4235 75.7753 56.0409 72.3187 54.7942 68.216C53.5702 64.1133 52.3575 59.4327 51.1562 54.174L57.3102 53.358C57.9449 56.3953 58.6362 59.3193 59.3842 62.13C60.1549 64.918 60.9369 67.4453 61.7302 69.712C62.5462 71.956 63.3282 73.792 64.0762 75.22C64.2575 75.5827 64.4275 75.8887 64.5862 76.138C64.7675 76.3647 64.8809 76.478 64.9262 76.478C65.0169 76.478 65.1302 76.376 65.2662 76.172C65.4249 75.968 65.6402 75.6053 65.9122 75.084C66.6829 73.7013 67.5102 71.8993 68.3942 69.678C69.3009 67.4567 70.2189 64.9407 71.1482 62.13C72.0775 59.3193 72.9502 56.3613 73.7662 53.256L79.8182 54.378C78.7982 57.982 77.7555 61.3253 76.6902 64.408C75.6249 67.468 74.5822 70.1993 73.5622 72.602C72.5422 74.982 71.6015 76.9767 70.7402 78.586C68.9042 82.0087 66.8755 83.72 64.6542 83.72ZM92.3198 83.788C90.5065 83.788 88.9198 83.4933 87.5598 82.904C86.2225 82.3147 85.1118 81.51 84.2278 80.49C83.3438 79.4473 82.6865 78.2573 82.2558 76.92C81.8252 75.5827 81.6098 74.1773 81.6098 72.704C81.6098 71.208 81.8705 69.8253 82.3918 68.556C82.9358 67.264 83.6725 66.142 84.6018 65.19C85.5538 64.238 86.6645 63.5013 87.9338 62.98C89.2032 62.436 90.5858 62.164 92.0818 62.164C93.6458 62.164 95.0965 62.436 96.4338 62.98C97.7712 63.524 98.9385 64.2833 99.9358 65.258C100.933 66.2327 101.704 67.3773 102.248 68.692C102.815 70.0067 103.098 71.4347 103.098 72.976C103.098 76.3987 102.157 79.062 100.276 80.966C98.3945 82.8473 95.7425 83.788 92.3198 83.788ZM92.2858 78.28C93.9405 78.28 95.1985 77.8153 96.0598 76.886C96.9438 75.9567 97.3858 74.6193 97.3858 72.874C97.3858 71.31 96.9098 70.052 95.9578 69.1C95.0058 68.148 93.7592 67.672 92.2178 67.672C91.2885 67.672 90.4385 67.9213 89.6678 68.42C88.8972 68.896 88.2738 69.542 87.7978 70.358C87.3445 71.1513 87.1178 72.0353 87.1178 73.01C87.1178 73.8713 87.2878 74.71 87.6278 75.526C87.9905 76.342 88.5572 77.0107 89.3278 77.532C90.0985 78.0307 91.0845 78.28 92.2858 78.28ZM115.759 83.754C113.855 83.754 112.098 83.3573 110.489 82.564C108.88 81.7707 107.588 80.6373 106.613 79.164C105.638 77.668 105.151 75.8887 105.151 73.826C105.151 71.514 105.604 69.4853 106.511 67.74C107.418 65.9947 108.687 64.646 110.319 63.694C111.951 62.7193 113.855 62.232 116.031 62.232C118.116 62.232 119.884 62.6627 121.335 63.524C122.786 64.3627 124.078 65.7 125.211 67.536L120.485 70.8C119.85 69.78 119.204 69.0093 118.547 68.488C117.89 67.944 116.994 67.672 115.861 67.672C114.32 67.672 113.073 68.216 112.121 69.304C111.169 70.3693 110.693 71.7973 110.693 73.588C110.693 74.6307 110.942 75.4807 111.441 76.138C111.962 76.7953 112.597 77.2827 113.345 77.6C114.093 77.9173 114.796 78.076 115.453 78.076C116.133 78.076 116.79 77.9967 117.425 77.838C118.06 77.6567 118.66 77.2713 119.227 76.682C119.794 76.0927 120.304 75.1973 120.757 73.996L125.857 76.716C125.177 77.9627 124.418 79.1187 123.579 80.184C122.74 81.2493 121.698 82.1107 120.451 82.768C119.227 83.4253 117.663 83.754 115.759 83.754ZM138.377 83.72C136.201 83.72 134.285 83.2893 132.631 82.428C130.999 81.5893 129.718 80.4107 128.789 78.892C127.882 77.3733 127.429 75.6167 127.429 73.622C127.429 72.4207 127.633 71.1627 128.041 69.848C128.449 68.5107 129.106 67.264 130.013 66.108C130.919 64.952 132.109 64.0113 133.583 63.286C135.079 62.5607 136.892 62.198 139.023 62.198C140.564 62.198 141.856 62.368 142.899 62.708C143.964 63.048 144.825 63.49 145.483 64.034C146.163 64.578 146.673 65.156 147.013 65.768C147.375 66.38 147.613 66.9693 147.727 67.536C147.863 68.08 147.931 68.5333 147.931 68.896C147.931 71.0947 147.001 72.7947 145.143 73.996C143.307 75.1747 140.7 75.764 137.323 75.764C136.552 75.764 135.815 75.73 135.113 75.662C134.433 75.594 133.798 75.5147 133.209 75.424C133.639 76.5573 134.353 77.396 135.351 77.94C136.348 78.4613 137.379 78.722 138.445 78.722C139.986 78.722 141.346 78.45 142.525 77.906C143.703 77.3393 144.814 76.478 145.857 75.322L148.883 79.674C148.157 80.2633 147.341 80.8753 146.435 81.51C145.551 82.1447 144.463 82.666 143.171 83.074C141.879 83.5047 140.281 83.72 138.377 83.72ZM139.125 67.298C137.787 67.298 136.609 67.638 135.589 68.318C134.569 68.998 133.821 69.8933 133.345 71.004C133.911 71.0947 134.467 71.174 135.011 71.242C135.577 71.2873 136.133 71.31 136.677 71.31C137.175 71.31 137.742 71.2647 138.377 71.174C139.034 71.0833 139.669 70.9473 140.281 70.766C140.915 70.5847 141.437 70.358 141.845 70.086C142.253 69.7913 142.457 69.4513 142.457 69.066C142.457 68.8847 142.366 68.658 142.185 68.386C142.003 68.114 141.675 67.8647 141.199 67.638C140.723 67.4113 140.031 67.298 139.125 67.298ZM131.747 57.642C132.177 57.234 132.665 56.7353 133.209 56.146C133.775 55.534 134.342 54.9107 134.909 54.276C135.475 53.6187 135.997 52.9953 136.473 52.406C136.971 51.794 137.391 51.284 137.731 50.876C138.32 51.5107 138.977 52.2133 139.703 52.984C140.451 53.732 141.221 54.4687 142.015 55.194C142.808 55.9193 143.556 56.5767 144.259 57.166L142.015 60.158C141.267 59.614 140.575 59.0587 139.941 58.492C139.306 57.9027 138.637 57.268 137.935 56.588C137.345 57.2907 136.79 57.914 136.269 58.458C135.77 58.9793 135.192 59.5573 134.535 60.192C134.489 60.1467 134.319 59.9993 134.025 59.75C133.753 59.478 133.435 59.1833 133.073 58.866C132.71 58.526 132.393 58.2427 132.121 58.016C131.871 57.7667 131.747 57.642 131.747 57.642ZM159.558 90.656C159.4 88.8427 159.286 87.018 159.218 85.182C159.15 83.346 159.116 81.2267 159.116 78.824C159.116 75.9 159.162 72.9873 159.252 70.086C159.343 67.1847 159.479 64.5327 159.66 62.13L165.508 62.3C165.44 62.8213 165.384 63.3767 165.338 63.966C166.154 63.422 167.027 63.0253 167.956 62.776C168.908 62.5267 169.872 62.402 170.846 62.402C172.093 62.402 173.306 62.606 174.484 63.014C175.663 63.3993 176.728 64.0227 177.68 64.884C178.632 65.7227 179.38 66.8107 179.924 68.148C180.491 69.4853 180.774 71.0947 180.774 72.976C180.774 74.8347 180.491 76.4553 179.924 77.838C179.358 79.2207 178.598 80.354 177.646 81.238C176.694 82.1447 175.629 82.8133 174.45 83.244C173.272 83.6973 172.059 83.924 170.812 83.924C168.523 83.924 166.506 83.244 164.76 81.884C164.806 83.3347 164.874 84.7287 164.964 86.066C165.055 87.426 165.168 88.8087 165.304 90.214L159.558 90.656ZM169.928 68.046C167.684 68.046 165.996 69.1453 164.862 71.344C164.794 72.704 164.749 74.0867 164.726 75.492C165.27 76.2173 165.973 76.852 166.834 77.396C167.696 77.9173 168.795 78.178 170.132 78.178C173.328 78.178 174.926 76.3533 174.926 72.704C174.926 71.7293 174.745 70.936 174.382 70.324C174.02 69.712 173.566 69.2473 173.022 68.93C172.478 68.59 171.923 68.3633 171.356 68.25C170.79 68.114 170.314 68.046 169.928 68.046ZM191.793 83.686C190.093 83.686 188.552 83.244 187.169 82.36C185.786 81.4987 184.687 80.3313 183.871 78.858C183.078 77.362 182.681 75.696 182.681 73.86C182.681 72.1373 182.998 70.5847 183.633 69.202C184.268 67.7967 185.129 66.5953 186.217 65.598C187.328 64.6007 188.586 63.8413 189.991 63.32C191.396 62.776 192.87 62.504 194.411 62.504C195.703 62.504 196.972 62.6853 198.219 63.048C198.31 62.572 198.389 62.096 198.457 61.62L204.271 62.606C204.112 63.0367 203.954 63.6827 203.795 64.544C203.636 65.4053 203.5 66.3687 203.387 67.434C203.296 68.4993 203.217 69.5647 203.149 70.63C203.081 71.6953 203.047 72.6587 203.047 73.52C203.047 74.2227 203.092 74.914 203.183 75.594C203.296 76.2513 203.523 76.7953 203.863 77.226C204.203 77.634 204.724 77.838 205.427 77.838H205.903L205.053 83.754C203.557 83.754 202.322 83.4933 201.347 82.972C200.372 82.4733 199.59 81.7933 199.001 80.932C198.026 82.02 196.916 82.7453 195.669 83.108C194.422 83.4933 193.13 83.686 191.793 83.686ZM188.257 74.54C188.37 75.628 188.812 76.5007 189.583 77.158C190.376 77.7927 191.374 78.11 192.575 78.11C193.731 78.11 194.694 77.804 195.465 77.192C196.236 76.5573 196.87 75.696 197.369 74.608C197.346 74.2453 197.335 73.8713 197.335 73.486C197.335 72.6927 197.358 71.8767 197.403 71.038C197.448 70.1993 197.505 69.372 197.573 68.556C196.621 68.1933 195.624 68.012 194.581 68.012C193.357 68.012 192.258 68.2613 191.283 68.76C190.331 69.236 189.583 69.9047 189.039 70.766C188.495 71.6273 188.223 72.6247 188.223 73.758C188.223 73.894 188.223 74.03 188.223 74.166C188.223 74.302 188.234 74.4267 188.257 74.54ZM207.892 83.652C207.983 81.7707 208.051 79.8893 208.096 78.008C208.142 76.1267 208.164 74.268 208.164 72.432C208.142 70.7547 208.108 69.1 208.062 67.468C208.04 65.8133 207.983 64.2153 207.892 62.674L213.604 62.504C213.627 63.3427 213.661 64.204 213.706 65.088C214.432 64.1813 215.27 63.456 216.222 62.912C217.197 62.3453 218.308 62.062 219.554 62.062C220.03 62.062 220.642 62.13 221.39 62.266C222.138 62.402 222.898 62.6627 223.668 63.048L223.022 68.794C222.456 68.454 221.844 68.216 221.186 68.08C220.552 67.9213 220.019 67.842 219.588 67.842C218.138 67.842 216.902 68.4993 215.882 69.814C214.885 71.106 214.205 72.908 213.842 75.22C213.842 76.8067 213.82 78.3253 213.774 79.776C213.752 81.204 213.695 82.496 213.604 83.652H207.892ZM235.33 83.72C233.154 83.72 231.238 83.2893 229.584 82.428C227.952 81.5893 226.671 80.4107 225.742 78.892C224.835 77.3733 224.382 75.6167 224.382 73.622C224.382 72.4207 224.586 71.1627 224.994 69.848C225.402 68.5107 226.059 67.264 226.966 66.108C227.872 64.952 229.062 64.0113 230.536 63.286C232.032 62.5607 233.845 62.198 235.976 62.198C237.517 62.198 238.809 62.368 239.852 62.708C240.917 63.048 241.778 63.49 242.436 64.034C243.116 64.578 243.626 65.156 243.966 65.768C244.328 66.38 244.566 66.9693 244.68 67.536C244.816 68.08 244.884 68.5333 244.884 68.896C244.884 71.0947 243.954 72.7947 242.096 73.996C240.26 75.1747 237.653 75.764 234.276 75.764C233.505 75.764 232.768 75.73 232.066 75.662C231.386 75.594 230.751 75.5147 230.162 75.424C230.592 76.5573 231.306 77.396 232.304 77.94C233.301 78.4613 234.332 78.722 235.398 78.722C236.939 78.722 238.299 78.45 239.478 77.906C240.656 77.3393 241.767 76.478 242.81 75.322L245.836 79.674C245.11 80.2633 244.294 80.8753 243.388 81.51C242.504 82.1447 241.416 82.666 240.124 83.074C238.832 83.5047 237.234 83.72 235.33 83.72ZM236.078 67.298C234.74 67.298 233.562 67.638 232.542 68.318C231.522 68.998 230.774 69.8933 230.298 71.004C230.864 71.0947 231.42 71.174 231.964 71.242C232.53 71.2873 233.086 71.31 233.63 71.31C234.128 71.31 234.695 71.2647 235.33 71.174C235.987 71.0833 236.622 70.9473 237.234 70.766C237.868 70.5847 238.39 70.358 238.798 70.086C239.206 69.7913 239.41 69.4513 239.41 69.066C239.41 68.8847 239.319 68.658 239.138 68.386C238.956 68.114 238.628 67.8647 238.152 67.638C237.676 67.4113 236.984 67.298 236.078 67.298ZM258.466 83.754C256.562 83.754 254.805 83.3573 253.196 82.564C251.587 81.7707 250.295 80.6373 249.32 79.164C248.345 77.668 247.858 75.8887 247.858 73.826C247.858 71.514 248.311 69.4853 249.218 67.74C250.125 65.9947 251.394 64.646 253.026 63.694C254.658 62.7193 256.562 62.232 258.738 62.232C260.823 62.232 262.591 62.6627 264.042 63.524C265.493 64.3627 266.785 65.7 267.918 67.536L263.192 70.8C262.557 69.78 261.911 69.0093 261.254 68.488C260.597 67.944 259.701 67.672 258.568 67.672C257.027 67.672 255.78 68.216 254.828 69.304C253.876 70.3693 253.4 71.7973 253.4 73.588C253.4 74.6307 253.649 75.4807 254.148 76.138C254.669 76.7953 255.304 77.2827 256.052 77.6C256.8 77.9173 257.503 78.076 258.16 78.076C258.84 78.076 259.497 77.9967 260.132 77.838C260.767 77.6567 261.367 77.2713 261.934 76.682C262.501 76.0927 263.011 75.1973 263.464 73.996L268.564 76.716C267.884 77.9627 267.125 79.1187 266.286 80.184C265.447 81.2493 264.405 82.1107 263.158 82.768C261.934 83.4253 260.37 83.754 258.466 83.754ZM281.084 83.72C278.908 83.72 276.992 83.2893 275.338 82.428C273.706 81.5893 272.425 80.4107 271.496 78.892C270.589 77.3733 270.136 75.6167 270.136 73.622C270.136 72.4207 270.34 71.1627 270.748 69.848C271.156 68.5107 271.813 67.264 272.72 66.108C273.626 64.952 274.816 64.0113 276.29 63.286C277.786 62.5607 279.599 62.198 281.73 62.198C283.271 62.198 284.563 62.368 285.606 62.708C286.671 63.048 287.532 63.49 288.19 64.034C288.87 64.578 289.38 65.156 289.72 65.768C290.082 66.38 290.32 66.9693 290.434 67.536C290.57 68.08 290.638 68.5333 290.638 68.896C290.638 71.0947 289.708 72.7947 287.85 73.996C286.014 75.1747 283.407 75.764 280.03 75.764C279.259 75.764 278.522 75.73 277.82 75.662C277.14 75.594 276.505 75.5147 275.916 75.424C276.346 76.5573 277.06 77.396 278.058 77.94C279.055 78.4613 280.086 78.722 281.152 78.722C282.693 78.722 284.053 78.45 285.232 77.906C286.41 77.3393 287.521 76.478 288.564 75.322L291.59 79.674C290.864 80.2633 290.048 80.8753 289.142 81.51C288.258 82.1447 287.17 82.666 285.878 83.074C284.586 83.5047 282.988 83.72 281.084 83.72ZM281.832 67.298C280.494 67.298 279.316 67.638 278.296 68.318C277.276 68.998 276.528 69.8933 276.052 71.004C276.618 71.0947 277.174 71.174 277.718 71.242C278.284 71.2873 278.84 71.31 279.384 71.31C279.882 71.31 280.449 71.2647 281.084 71.174C281.741 71.0833 282.376 70.9473 282.988 70.766C283.622 70.5847 284.144 70.358 284.552 70.086C284.96 69.7913 285.164 69.4513 285.164 69.066C285.164 68.8847 285.073 68.658 284.892 68.386C284.71 68.114 284.382 67.8647 283.906 67.638C283.43 67.4113 282.738 67.298 281.832 67.298ZM103.229 132.448C103.161 130.453 103.105 128.606 103.059 126.906C103.037 125.206 103.025 123.529 103.025 121.874C103.025 120.219 103.037 118.565 103.059 116.91C103.105 115.233 103.173 113.442 103.263 111.538H109.009C108.919 112.558 108.839 113.589 108.771 114.632C109.542 113.657 110.46 112.853 111.525 112.218C112.591 111.561 113.849 111.232 115.299 111.232C116.727 111.232 117.895 111.47 118.801 111.946C119.731 112.422 120.456 113.079 120.977 113.918C121.521 114.757 121.907 115.72 122.133 116.808C122.383 117.873 122.541 119.029 122.609 120.276C122.677 121.5 122.711 122.735 122.711 123.982C122.711 125.342 122.689 126.645 122.643 127.892C122.598 129.139 122.553 130.181 122.507 131.02C122.462 131.859 122.428 132.357 122.405 132.516H116.693C116.739 131.587 116.784 130.601 116.829 129.558C116.875 128.493 116.92 127.45 116.965 126.43C117.011 125.387 117.033 124.447 117.033 123.608C117.033 118.78 116.251 116.366 114.687 116.366C113.395 116.366 112.217 116.933 111.151 118.066C110.109 119.177 109.236 120.582 108.533 122.282C108.533 122.509 108.533 122.735 108.533 122.962C108.533 124.05 108.533 125.183 108.533 126.362C108.556 127.518 108.579 128.629 108.601 129.694C108.647 130.737 108.681 131.643 108.703 132.414L103.229 132.448ZM136.301 132.72C134.125 132.72 132.21 132.289 130.555 131.428C128.923 130.589 127.643 129.411 126.713 127.892C125.807 126.373 125.353 124.617 125.353 122.622C125.353 121.421 125.557 120.163 125.965 118.848C126.373 117.511 127.031 116.264 127.937 115.108C128.844 113.952 130.034 113.011 131.507 112.286C133.003 111.561 134.817 111.198 136.947 111.198C138.489 111.198 139.781 111.368 140.823 111.708C141.889 112.048 142.75 112.49 143.407 113.034C144.087 113.578 144.597 114.156 144.937 114.768C145.3 115.38 145.538 115.969 145.651 116.536C145.787 117.08 145.855 117.533 145.855 117.896C145.855 120.095 144.926 121.795 143.067 122.996C141.231 124.175 138.625 124.764 135.247 124.764C134.477 124.764 133.74 124.73 133.037 124.662C132.357 124.594 131.723 124.515 131.133 124.424C131.564 125.557 132.278 126.396 133.275 126.94C134.273 127.461 135.304 127.722 136.369 127.722C137.911 127.722 139.271 127.45 140.449 126.906C141.628 126.339 142.739 125.478 143.781 124.322L146.807 128.674C146.082 129.263 145.266 129.875 144.359 130.51C143.475 131.145 142.387 131.666 141.095 132.074C139.803 132.505 138.205 132.72 136.301 132.72ZM137.049 116.298C135.712 116.298 134.533 116.638 133.513 117.318C132.493 117.998 131.745 118.893 131.269 120.004C131.836 120.095 132.391 120.174 132.935 120.242C133.502 120.287 134.057 120.31 134.601 120.31C135.1 120.31 135.667 120.265 136.301 120.174C136.959 120.083 137.593 119.947 138.205 119.766C138.84 119.585 139.361 119.358 139.769 119.086C140.177 118.791 140.381 118.451 140.381 118.066C140.381 117.885 140.291 117.658 140.109 117.386C139.928 117.114 139.599 116.865 139.123 116.638C138.647 116.411 137.956 116.298 137.049 116.298ZM156.99 132.788C155.539 132.788 154.338 132.527 153.386 132.006C152.456 131.507 151.708 130.816 151.142 129.932C150.598 129.048 150.19 128.062 149.918 126.974C149.668 125.863 149.498 124.719 149.408 123.54C149.34 122.339 149.306 121.183 149.306 120.072C149.306 118.803 149.34 117.511 149.408 116.196C149.498 114.881 149.589 113.442 149.68 111.878L155.902 111.504C155.834 111.98 155.732 112.694 155.596 113.646C155.46 114.598 155.335 115.686 155.222 116.91C155.108 118.134 155.052 119.415 155.052 120.752C155.052 122.951 155.244 124.583 155.63 125.648C156.015 126.691 156.593 127.212 157.364 127.212C158.905 127.212 160.038 126.09 160.764 123.846C161.489 121.602 161.852 118.055 161.852 113.204V111.64L164.742 111.572L168.244 111.504C167.926 113.635 167.688 115.595 167.53 117.386C167.371 119.177 167.269 120.684 167.224 121.908C167.178 123.109 167.156 123.914 167.156 124.322C167.156 125.365 167.246 126.113 167.428 126.566C167.609 126.997 167.926 127.212 168.38 127.212C168.606 127.212 168.856 127.167 169.128 127.076C169.4 126.985 169.717 126.827 170.08 126.6L169.842 132.448C168.98 132.584 168.232 132.652 167.598 132.652C166.51 132.652 165.614 132.448 164.912 132.04C164.232 131.632 163.688 131.088 163.28 130.408C162.577 131.156 161.704 131.734 160.662 132.142C159.642 132.573 158.418 132.788 156.99 132.788ZM183.083 132.686C181.723 132.686 180.646 132.391 179.853 131.802C179.06 131.235 178.482 130.442 178.119 129.422C177.756 128.402 177.518 127.235 177.405 125.92C177.314 124.605 177.269 123.223 177.269 121.772C177.269 120.276 177.326 118.723 177.439 117.114C175.92 117.318 174.458 117.579 173.053 117.896L171.999 112.558C173.88 112.059 175.886 111.697 178.017 111.47C178.176 110.314 178.346 109.101 178.527 107.832C178.708 106.54 178.912 105.18 179.139 103.752L184.987 104.262C184.715 105.441 184.477 106.619 184.273 107.798C184.069 108.954 183.888 110.076 183.729 111.164C184.998 111.164 186.188 111.198 187.299 111.266C188.432 111.311 189.475 111.402 190.427 111.538L189.747 116.876C188.954 116.785 188.126 116.729 187.265 116.706C186.426 116.661 185.576 116.638 184.715 116.638C184.194 116.638 183.672 116.649 183.151 116.672C183.015 118.327 182.924 119.743 182.879 120.922C182.856 122.101 182.845 122.939 182.845 123.438C182.845 124.685 182.913 125.58 183.049 126.124C183.208 126.668 183.457 126.94 183.797 126.94C184.182 126.94 184.613 126.815 185.089 126.566C185.565 126.294 186.03 125.931 186.483 125.478C186.959 125.025 187.356 124.537 187.673 124.016L190.291 129.49C188.047 131.621 185.644 132.686 183.083 132.686ZM192.702 132.652C192.793 130.771 192.861 128.889 192.906 127.008C192.951 125.127 192.974 123.268 192.974 121.432C192.951 119.755 192.917 118.1 192.872 116.468C192.849 114.813 192.793 113.215 192.702 111.674L198.414 111.504C198.437 112.343 198.471 113.204 198.516 114.088C199.241 113.181 200.08 112.456 201.032 111.912C202.007 111.345 203.117 111.062 204.364 111.062C204.84 111.062 205.452 111.13 206.2 111.266C206.948 111.402 207.707 111.663 208.478 112.048L207.832 117.794C207.265 117.454 206.653 117.216 205.996 117.08C205.361 116.921 204.829 116.842 204.398 116.842C202.947 116.842 201.712 117.499 200.692 118.814C199.695 120.106 199.015 121.908 198.652 124.22C198.652 125.807 198.629 127.325 198.584 128.776C198.561 130.204 198.505 131.496 198.414 132.652H192.702ZM219.969 132.788C218.156 132.788 216.569 132.493 215.209 131.904C213.872 131.315 212.761 130.51 211.877 129.49C210.993 128.447 210.336 127.257 209.905 125.92C209.475 124.583 209.259 123.177 209.259 121.704C209.259 120.208 209.52 118.825 210.041 117.556C210.585 116.264 211.322 115.142 212.251 114.19C213.203 113.238 214.314 112.501 215.583 111.98C216.853 111.436 218.235 111.164 219.731 111.164C221.295 111.164 222.746 111.436 224.083 111.98C225.421 112.524 226.588 113.283 227.585 114.258C228.583 115.233 229.353 116.377 229.897 117.692C230.464 119.007 230.747 120.435 230.747 121.976C230.747 125.399 229.807 128.062 227.925 129.966C226.044 131.847 223.392 132.788 219.969 132.788ZM219.935 127.28C221.59 127.28 222.848 126.815 223.709 125.886C224.593 124.957 225.035 123.619 225.035 121.874C225.035 120.31 224.559 119.052 223.607 118.1C222.655 117.148 221.409 116.672 219.867 116.672C218.938 116.672 218.088 116.921 217.317 117.42C216.547 117.896 215.923 118.542 215.447 119.358C214.994 120.151 214.767 121.035 214.767 122.01C214.767 122.871 214.937 123.71 215.277 124.526C215.64 125.342 216.207 126.011 216.977 126.532C217.748 127.031 218.734 127.28 219.935 127.28ZM236.676 132.754C235.815 132.754 235.101 132.561 234.534 132.176C233.968 131.791 233.548 131.292 233.276 130.68C233.004 130.068 232.868 129.433 232.868 128.776C232.868 127.529 233.265 126.577 234.058 125.92C234.852 125.24 235.804 124.9 236.914 124.9C238.048 124.9 238.943 125.24 239.6 125.92C240.258 126.6 240.586 127.507 240.586 128.64C240.586 130.091 240.19 131.133 239.396 131.768C238.626 132.425 237.719 132.754 236.676 132.754Z" fill="white"/>
</g>
</g>
<defs>
<filter id="filter0_d_8_35" x="-2" y="0" width="351" height="182.4" filterUnits="userSpaceOnUse" color-interpolation-filters="sRGB">
<feFlood flood-opacity="0" result="BackgroundImageFix"/>
<feColorMatrix in="SourceAlpha" type="matrix" values="0 0 0 0 0 0 0 0 0 0 0 0 0 0 0 0 0 0 127 0" result="hardAlpha"/>
<feOffset dx="2" dy="4"/>
<feGaussianBlur stdDeviation="2"/>
<feComposite in2="hardAlpha" operator="out"/>
<feColorMatrix type="matrix" values="0 0 0 0 0 0 0 0 0 0 0 0 0 0 0 0 0 0 0.25 0"/>
<feBlend mode="normal" in2="BackgroundImageFix" result="effect1_dropShadow_8_35"/>
<feBlend mode="normal" in="SourceGraphic" in2="effect1_dropShadow_8_35" result="shape"/>
</filter>
<filter id="filter1_d_8_35" x="47.1562" y="50.876" width="248.433" height="89.912" filterUnits="userSpaceOnUse" color-interpolation-filters="sRGB">
<feFlood flood-opacity="0" result="BackgroundImageFix"/>
<feColorMatrix in="SourceAlpha" type="matrix" values="0 0 0 0 0 0 0 0 0 0 0 0 0 0 0 0 0 0 127 0" result="hardAlpha"/>
<feOffset dy="4"/>
<feGaussianBlur stdDeviation="2"/>
<feComposite in2="hardAlpha" operator="out"/>
<feColorMatrix type="matrix" values="0 0 0 0 0 0 0 0 0 0 0 0 0 0 0 0 0 0 0.25 0"/>
<feBlend mode="normal" in2="BackgroundImageFix" result="effect1_dropShadow_8_35"/>
<feBlend mode="normal" in="SourceGraphic" in2="effect1_dropShadow_8_35" result="shape"/>
</filter>
<clipPath id="clip0_8_35">
<rect width="343" height="218" fill="white"/>
</clipPath>
</defs>
</svg>
