<svg width="343" height="218" viewBox="0 0 343 218" fill="none" xmlns="http://www.w3.org/2000/svg">
<g clip-path="url(#clip0_8_27)">
<g filter="url(#filter0_d_8_27)">
<path d="M308.7 0H34.3C15.3566 0 0 9.76019 0 21.8V152.6C0 164.64 15.3566 174.4 34.3 174.4H308.7C327.643 174.4 343 164.64 343 152.6V21.8C343 9.76019 327.643 0 308.7 0Z" fill="#2F88FF"/>
</g>
<path d="M262.9 152.6H160V218L262.9 152.6Z" fill="#2F88FF"/>
<g filter="url(#filter1_d_8_27)">
<path d="M64.6542 83.72C62.7049 83.72 60.8009 82.0087 58.9422 78.586C57.4235 75.7753 56.0409 72.3187 54.7942 68.216C53.5702 64.1133 52.3575 59.4327 51.1562 54.174L57.3102 53.358C57.9449 56.3953 58.6362 59.3193 59.3842 62.13C60.1549 64.918 60.9369 67.4453 61.7302 69.712C62.5462 71.956 63.3282 73.792 64.0762 75.22C64.2575 75.5827 64.4275 75.8887 64.5862 76.138C64.7675 76.3647 64.8809 76.478 64.9262 76.478C65.0169 76.478 65.1302 76.376 65.2662 76.172C65.4249 75.968 65.6402 75.6053 65.9122 75.084C66.6829 73.7013 67.5102 71.8993 68.3942 69.678C69.3009 67.4567 70.2189 64.9407 71.1482 62.13C72.0775 59.3193 72.9502 56.3613 73.7662 53.256L79.8182 54.378C78.7982 57.982 77.7555 61.3253 76.6902 64.408C75.6249 67.468 74.5822 70.1993 73.5622 72.602C72.5422 74.982 71.6015 76.9767 70.7402 78.586C68.9042 82.0087 66.8755 83.72 64.6542 83.72ZM92.3198 83.788C90.5065 83.788 88.9198 83.4933 87.5598 82.904C86.2225 82.3147 85.1118 81.51 84.2278 80.49C83.3438 79.4473 82.6865 78.2573 82.2558 76.92C81.8252 75.5827 81.6098 74.1773 81.6098 72.704C81.6098 71.208 81.8705 69.8253 82.3918 68.556C82.9358 67.264 83.6725 66.142 84.6018 65.19C85.5538 64.238 86.6645 63.5013 87.9338 62.98C89.2032 62.436 90.5858 62.164 92.0818 62.164C93.6458 62.164 95.0965 62.436 96.4338 62.98C97.7712 63.524 98.9385 64.2833 99.9358 65.258C100.933 66.2327 101.704 67.3773 102.248 68.692C102.815 70.0067 103.098 71.4347 103.098 72.976C103.098 76.3987 102.157 79.062 100.276 80.966C98.3945 82.8473 95.7425 83.788 92.3198 83.788ZM92.2858 78.28C93.9405 78.28 95.1985 77.8153 96.0598 76.886C96.9438 75.9567 97.3858 74.6193 97.3858 72.874C97.3858 71.31 96.9098 70.052 95.9578 69.1C95.0058 68.148 93.7592 67.672 92.2178 67.672C91.2885 67.672 90.4385 67.9213 89.6678 68.42C88.8972 68.896 88.2738 69.542 87.7978 70.358C87.3445 71.1513 87.1178 72.0353 87.1178 73.01C87.1178 73.8713 87.2878 74.71 87.6278 75.526C87.9905 76.342 88.5572 77.0107 89.3278 77.532C90.0985 78.0307 91.0845 78.28 92.2858 78.28ZM115.759 83.754C113.855 83.754 112.098 83.3573 110.489 82.564C108.88 81.7707 107.588 80.6373 106.613 79.164C105.638 77.668 105.151 75.8887 105.151 73.826C105.151 71.514 105.604 69.4853 106.511 67.74C107.418 65.9947 108.687 64.646 110.319 63.694C111.951 62.7193 113.855 62.232 116.031 62.232C118.116 62.232 119.884 62.6627 121.335 63.524C122.786 64.3627 124.078 65.7 125.211 67.536L120.485 70.8C119.85 69.78 119.204 69.0093 118.547 68.488C117.89 67.944 116.994 67.672 115.861 67.672C114.32 67.672 113.073 68.216 112.121 69.304C111.169 70.3693 110.693 71.7973 110.693 73.588C110.693 74.6307 110.942 75.4807 111.441 76.138C111.962 76.7953 112.597 77.2827 113.345 77.6C114.093 77.9173 114.796 78.076 115.453 78.076C116.133 78.076 116.79 77.9967 117.425 77.838C118.06 77.6567 118.66 77.2713 119.227 76.682C119.794 76.0927 120.304 75.1973 120.757 73.996L125.857 76.716C125.177 77.9627 124.418 79.1187 123.579 80.184C122.74 81.2493 121.698 82.1107 120.451 82.768C119.227 83.4253 117.663 83.754 115.759 83.754ZM138.377 83.72C136.201 83.72 134.285 83.2893 132.631 82.428C130.999 81.5893 129.718 80.4107 128.789 78.892C127.882 77.3733 127.429 75.6167 127.429 73.622C127.429 72.4207 127.633 71.1627 128.041 69.848C128.449 68.5107 129.106 67.264 130.013 66.108C130.919 64.952 132.109 64.0113 133.583 63.286C135.079 62.5607 136.892 62.198 139.023 62.198C140.564 62.198 141.856 62.368 142.899 62.708C143.964 63.048 144.825 63.49 145.483 64.034C146.163 64.578 146.673 65.156 147.013 65.768C147.375 66.38 147.613 66.9693 147.727 67.536C147.863 68.08 147.931 68.5333 147.931 68.896C147.931 71.0947 147.001 72.7947 145.143 73.996C143.307 75.1747 140.7 75.764 137.323 75.764C136.552 75.764 135.815 75.73 135.113 75.662C134.433 75.594 133.798 75.5147 133.209 75.424C133.639 76.5573 134.353 77.396 135.351 77.94C136.348 78.4613 137.379 78.722 138.445 78.722C139.986 78.722 141.346 78.45 142.525 77.906C143.703 77.3393 144.814 76.478 145.857 75.322L148.883 79.674C148.157 80.2633 147.341 80.8753 146.435 81.51C145.551 82.1447 144.463 82.666 143.171 83.074C141.879 83.5047 140.281 83.72 138.377 83.72ZM139.125 67.298C137.787 67.298 136.609 67.638 135.589 68.318C134.569 68.998 133.821 69.8933 133.345 71.004C133.911 71.0947 134.467 71.174 135.011 71.242C135.577 71.2873 136.133 71.31 136.677 71.31C137.175 71.31 137.742 71.2647 138.377 71.174C139.034 71.0833 139.669 70.9473 140.281 70.766C140.915 70.5847 141.437 70.358 141.845 70.086C142.253 69.7913 142.457 69.4513 142.457 69.066C142.457 68.8847 142.366 68.658 142.185 68.386C142.003 68.114 141.675 67.8647 141.199 67.638C140.723 67.4113 140.031 67.298 139.125 67.298ZM131.747 57.642C132.177 57.234 132.665 56.7353 133.209 56.146C133.775 55.534 134.342 54.9107 134.909 54.276C135.475 53.6187 135.997 52.9953 136.473 52.406C136.971 51.794 137.391 51.284 137.731 50.876C138.32 51.5107 138.977 52.2133 139.703 52.984C140.451 53.732 141.221 54.4687 142.015 55.194C142.808 55.9193 143.556 56.5767 144.259 57.166L142.015 60.158C141.267 59.614 140.575 59.0587 139.941 58.492C139.306 57.9027 138.637 57.268 137.935 56.588C137.345 57.2907 136.79 57.914 136.269 58.458C135.77 58.9793 135.192 59.5573 134.535 60.192C134.489 60.1467 134.319 59.9993 134.025 59.75C133.753 59.478 133.435 59.1833 133.073 58.866C132.71 58.526 132.393 58.2427 132.121 58.016C131.871 57.7667 131.747 57.642 131.747 57.642ZM159.558 90.656C159.4 88.8427 159.286 87.018 159.218 85.182C159.15 83.346 159.116 81.2267 159.116 78.824C159.116 75.9 159.162 72.9873 159.252 70.086C159.343 67.1847 159.479 64.5327 159.66 62.13L165.508 62.3C165.44 62.8213 165.384 63.3767 165.338 63.966C166.154 63.422 167.027 63.0253 167.956 62.776C168.908 62.5267 169.872 62.402 170.846 62.402C172.093 62.402 173.306 62.606 174.484 63.014C175.663 63.3993 176.728 64.0227 177.68 64.884C178.632 65.7227 179.38 66.8107 179.924 68.148C180.491 69.4853 180.774 71.0947 180.774 72.976C180.774 74.8347 180.491 76.4553 179.924 77.838C179.358 79.2207 178.598 80.354 177.646 81.238C176.694 82.1447 175.629 82.8133 174.45 83.244C173.272 83.6973 172.059 83.924 170.812 83.924C168.523 83.924 166.506 83.244 164.76 81.884C164.806 83.3347 164.874 84.7287 164.964 86.066C165.055 87.426 165.168 88.8087 165.304 90.214L159.558 90.656ZM169.928 68.046C167.684 68.046 165.996 69.1453 164.862 71.344C164.794 72.704 164.749 74.0867 164.726 75.492C165.27 76.2173 165.973 76.852 166.834 77.396C167.696 77.9173 168.795 78.178 170.132 78.178C173.328 78.178 174.926 76.3533 174.926 72.704C174.926 71.7293 174.745 70.936 174.382 70.324C174.02 69.712 173.566 69.2473 173.022 68.93C172.478 68.59 171.923 68.3633 171.356 68.25C170.79 68.114 170.314 68.046 169.928 68.046ZM191.793 83.686C190.093 83.686 188.552 83.244 187.169 82.36C185.786 81.4987 184.687 80.3313 183.871 78.858C183.078 77.362 182.681 75.696 182.681 73.86C182.681 72.1373 182.998 70.5847 183.633 69.202C184.268 67.7967 185.129 66.5953 186.217 65.598C187.328 64.6007 188.586 63.8413 189.991 63.32C191.396 62.776 192.87 62.504 194.411 62.504C195.703 62.504 196.972 62.6853 198.219 63.048C198.31 62.572 198.389 62.096 198.457 61.62L204.271 62.606C204.112 63.0367 203.954 63.6827 203.795 64.544C203.636 65.4053 203.5 66.3687 203.387 67.434C203.296 68.4993 203.217 69.5647 203.149 70.63C203.081 71.6953 203.047 72.6587 203.047 73.52C203.047 74.2227 203.092 74.914 203.183 75.594C203.296 76.2513 203.523 76.7953 203.863 77.226C204.203 77.634 204.724 77.838 205.427 77.838H205.903L205.053 83.754C203.557 83.754 202.322 83.4933 201.347 82.972C200.372 82.4733 199.59 81.7933 199.001 80.932C198.026 82.02 196.916 82.7453 195.669 83.108C194.422 83.4933 193.13 83.686 191.793 83.686ZM188.257 74.54C188.37 75.628 188.812 76.5007 189.583 77.158C190.376 77.7927 191.374 78.11 192.575 78.11C193.731 78.11 194.694 77.804 195.465 77.192C196.236 76.5573 196.87 75.696 197.369 74.608C197.346 74.2453 197.335 73.8713 197.335 73.486C197.335 72.6927 197.358 71.8767 197.403 71.038C197.448 70.1993 197.505 69.372 197.573 68.556C196.621 68.1933 195.624 68.012 194.581 68.012C193.357 68.012 192.258 68.2613 191.283 68.76C190.331 69.236 189.583 69.9047 189.039 70.766C188.495 71.6273 188.223 72.6247 188.223 73.758C188.223 73.894 188.223 74.03 188.223 74.166C188.223 74.302 188.234 74.4267 188.257 74.54ZM207.892 83.652C207.983 81.7707 208.051 79.8893 208.096 78.008C208.142 76.1267 208.164 74.268 208.164 72.432C208.142 70.7547 208.108 69.1 208.062 67.468C208.04 65.8133 207.983 64.2153 207.892 62.674L213.604 62.504C213.627 63.3427 213.661 64.204 213.706 65.088C214.432 64.1813 215.27 63.456 216.222 62.912C217.197 62.3453 218.308 62.062 219.554 62.062C220.03 62.062 220.642 62.13 221.39 62.266C222.138 62.402 222.898 62.6627 223.668 63.048L223.022 68.794C222.456 68.454 221.844 68.216 221.186 68.08C220.552 67.9213 220.019 67.842 219.588 67.842C218.138 67.842 216.902 68.4993 215.882 69.814C214.885 71.106 214.205 72.908 213.842 75.22C213.842 76.8067 213.82 78.3253 213.774 79.776C213.752 81.204 213.695 82.496 213.604 83.652H207.892ZM235.33 83.72C233.154 83.72 231.238 83.2893 229.584 82.428C227.952 81.5893 226.671 80.4107 225.742 78.892C224.835 77.3733 224.382 75.6167 224.382 73.622C224.382 72.4207 224.586 71.1627 224.994 69.848C225.402 68.5107 226.059 67.264 226.966 66.108C227.872 64.952 229.062 64.0113 230.536 63.286C232.032 62.5607 233.845 62.198 235.976 62.198C237.517 62.198 238.809 62.368 239.852 62.708C240.917 63.048 241.778 63.49 242.436 64.034C243.116 64.578 243.626 65.156 243.966 65.768C244.328 66.38 244.566 66.9693 244.68 67.536C244.816 68.08 244.884 68.5333 244.884 68.896C244.884 71.0947 243.954 72.7947 242.096 73.996C240.26 75.1747 237.653 75.764 234.276 75.764C233.505 75.764 232.768 75.73 232.066 75.662C231.386 75.594 230.751 75.5147 230.162 75.424C230.592 76.5573 231.306 77.396 232.304 77.94C233.301 78.4613 234.332 78.722 235.398 78.722C236.939 78.722 238.299 78.45 239.478 77.906C240.656 77.3393 241.767 76.478 242.81 75.322L245.836 79.674C245.11 80.2633 244.294 80.8753 243.388 81.51C242.504 82.1447 241.416 82.666 240.124 83.074C238.832 83.5047 237.234 83.72 235.33 83.72ZM236.078 67.298C234.74 67.298 233.562 67.638 232.542 68.318C231.522 68.998 230.774 69.8933 230.298 71.004C230.864 71.0947 231.42 71.174 231.964 71.242C232.53 71.2873 233.086 71.31 233.63 71.31C234.128 71.31 234.695 71.2647 235.33 71.174C235.987 71.0833 236.622 70.9473 237.234 70.766C237.868 70.5847 238.39 70.358 238.798 70.086C239.206 69.7913 239.41 69.4513 239.41 69.066C239.41 68.8847 239.319 68.658 239.138 68.386C238.956 68.114 238.628 67.8647 238.152 67.638C237.676 67.4113 236.984 67.298 236.078 67.298ZM258.466 83.754C256.562 83.754 254.805 83.3573 253.196 82.564C251.587 81.7707 250.295 80.6373 249.32 79.164C248.345 77.668 247.858 75.8887 247.858 73.826C247.858 71.514 248.311 69.4853 249.218 67.74C250.125 65.9947 251.394 64.646 253.026 63.694C254.658 62.7193 256.562 62.232 258.738 62.232C260.823 62.232 262.591 62.6627 264.042 63.524C265.493 64.3627 266.785 65.7 267.918 67.536L263.192 70.8C262.557 69.78 261.911 69.0093 261.254 68.488C260.597 67.944 259.701 67.672 258.568 67.672C257.027 67.672 255.78 68.216 254.828 69.304C253.876 70.3693 253.4 71.7973 253.4 73.588C253.4 74.6307 253.649 75.4807 254.148 76.138C254.669 76.7953 255.304 77.2827 256.052 77.6C256.8 77.9173 257.503 78.076 258.16 78.076C258.84 78.076 259.497 77.9967 260.132 77.838C260.767 77.6567 261.367 77.2713 261.934 76.682C262.501 76.0927 263.011 75.1973 263.464 73.996L268.564 76.716C267.884 77.9627 267.125 79.1187 266.286 80.184C265.447 81.2493 264.405 82.1107 263.158 82.768C261.934 83.4253 260.37 83.754 258.466 83.754ZM281.084 83.72C278.908 83.72 276.992 83.2893 275.338 82.428C273.706 81.5893 272.425 80.4107 271.496 78.892C270.589 77.3733 270.136 75.6167 270.136 73.622C270.136 72.4207 270.34 71.1627 270.748 69.848C271.156 68.5107 271.813 67.264 272.72 66.108C273.626 64.952 274.816 64.0113 276.29 63.286C277.786 62.5607 279.599 62.198 281.73 62.198C283.271 62.198 284.563 62.368 285.606 62.708C286.671 63.048 287.532 63.49 288.19 64.034C288.87 64.578 289.38 65.156 289.72 65.768C290.082 66.38 290.32 66.9693 290.434 67.536C290.57 68.08 290.638 68.5333 290.638 68.896C290.638 71.0947 289.708 72.7947 287.85 73.996C286.014 75.1747 283.407 75.764 280.03 75.764C279.259 75.764 278.522 75.73 277.82 75.662C277.14 75.594 276.505 75.5147 275.916 75.424C276.346 76.5573 277.06 77.396 278.058 77.94C279.055 78.4613 280.086 78.722 281.152 78.722C282.693 78.722 284.053 78.45 285.232 77.906C286.41 77.3393 287.521 76.478 288.564 75.322L291.59 79.674C290.864 80.2633 290.048 80.8753 289.142 81.51C288.258 82.1447 287.17 82.666 285.878 83.074C284.586 83.5047 282.988 83.72 281.084 83.72ZM281.832 67.298C280.494 67.298 279.316 67.638 278.296 68.318C277.276 68.998 276.528 69.8933 276.052 71.004C276.618 71.0947 277.174 71.174 277.718 71.242C278.284 71.2873 278.84 71.31 279.384 71.31C279.882 71.31 280.449 71.2647 281.084 71.174C281.741 71.0833 282.376 70.9473 282.988 70.766C283.622 70.5847 284.144 70.358 284.552 70.086C284.96 69.7913 285.164 69.4513 285.164 69.066C285.164 68.8847 285.073 68.658 284.892 68.386C284.71 68.114 284.382 67.8647 283.906 67.638C283.43 67.4113 282.738 67.298 281.832 67.298ZM122.471 132.686C121.111 132.686 120.034 132.391 119.241 131.802C118.447 131.235 117.869 130.442 117.507 129.422C117.144 128.402 116.906 127.235 116.793 125.92C116.702 124.605 116.657 123.223 116.657 121.772C116.657 120.276 116.713 118.723 116.827 117.114C115.308 117.318 113.846 117.579 112.441 117.896L111.387 112.558C113.268 112.059 115.274 111.697 117.405 111.47C117.563 110.314 117.733 109.101 117.915 107.832C118.096 106.54 118.3 105.18 118.527 103.752L124.375 104.262C124.103 105.441 123.865 106.619 123.661 107.798C123.457 108.954 123.275 110.076 123.117 111.164C124.386 111.164 125.576 111.198 126.687 111.266C127.82 111.311 128.863 111.402 129.815 111.538L129.135 116.876C128.341 116.785 127.514 116.729 126.653 116.706C125.814 116.661 124.964 116.638 124.103 116.638C123.581 116.638 123.06 116.649 122.539 116.672C122.403 118.327 122.312 119.743 122.267 120.922C122.244 122.101 122.233 122.939 122.233 123.438C122.233 124.685 122.301 125.58 122.437 126.124C122.595 126.668 122.845 126.94 123.185 126.94C123.57 126.94 124.001 126.815 124.477 126.566C124.953 126.294 125.417 125.931 125.871 125.478C126.347 125.025 126.743 124.537 127.061 124.016L129.679 129.49C127.435 131.621 125.032 132.686 122.471 132.686ZM132.09 132.652C132.18 130.771 132.248 128.889 132.294 127.008C132.339 125.127 132.362 123.268 132.362 121.432C132.339 119.755 132.305 118.1 132.26 116.468C132.237 114.813 132.18 113.215 132.09 111.674L137.802 111.504C137.824 112.343 137.858 113.204 137.904 114.088C138.629 113.181 139.468 112.456 140.42 111.912C141.394 111.345 142.505 111.062 143.752 111.062C144.228 111.062 144.84 111.13 145.588 111.266C146.336 111.402 147.095 111.663 147.866 112.048L147.22 117.794C146.653 117.454 146.041 117.216 145.384 117.08C144.749 116.921 144.216 116.842 143.786 116.842C142.335 116.842 141.1 117.499 140.08 118.814C139.082 120.106 138.402 121.908 138.04 124.22C138.04 125.807 138.017 127.325 137.972 128.776C137.949 130.204 137.892 131.496 137.802 132.652H132.09ZM149.157 108.036C149.157 107.832 149.146 107.628 149.123 107.424C149.123 107.197 149.123 106.948 149.123 106.676C149.123 105.951 149.146 105.18 149.191 104.364C149.236 103.548 149.282 102.857 149.327 102.29L155.379 102.392C155.311 103.163 155.232 104.035 155.141 105.01C155.073 105.985 155.028 106.993 155.005 108.036H149.157ZM149.021 132.38C148.953 130.975 148.908 129.479 148.885 127.892C148.862 126.283 148.851 124.673 148.851 123.064C148.851 120.956 148.874 118.905 148.919 116.91C148.964 114.915 149.021 113.102 149.089 111.47L154.937 111.436C154.846 112.479 154.79 113.771 154.767 115.312C154.744 116.831 154.733 118.429 154.733 120.106C154.733 121.761 154.744 123.393 154.767 125.002C154.79 126.611 154.812 128.073 154.835 129.388C154.88 130.68 154.914 131.677 154.937 132.38H149.021ZM168.22 132.822C166.678 132.822 165.25 132.641 163.936 132.278C162.621 131.915 161.431 131.451 160.366 130.884C159.3 130.317 158.348 129.717 157.51 129.082L160.57 124.152C161.522 125.036 162.44 125.716 163.324 126.192C164.208 126.668 165.126 126.997 166.078 127.178C167.052 127.359 168.106 127.45 169.24 127.45C170.214 127.45 170.996 127.325 171.586 127.076C172.175 126.804 172.47 126.464 172.47 126.056C172.47 125.716 172.186 125.455 171.62 125.274C171.053 125.07 170.328 124.9 169.444 124.764C168.56 124.605 167.63 124.413 166.656 124.186C165.273 123.823 163.981 123.404 162.78 122.928C161.578 122.452 160.604 121.806 159.856 120.99C159.13 120.174 158.768 119.086 158.768 117.726C158.768 116.638 159.028 115.686 159.55 114.87C160.071 114.031 160.762 113.34 161.624 112.796C162.508 112.229 163.505 111.81 164.616 111.538C165.726 111.266 166.871 111.13 168.05 111.13C170.09 111.13 171.846 111.379 173.32 111.878C174.816 112.354 176.244 112.989 177.604 113.782L174.51 118.474C173.83 117.998 173.048 117.59 172.164 117.25C171.302 116.887 170.43 116.615 169.546 116.434C168.684 116.23 167.88 116.128 167.132 116.128C166.316 116.128 165.67 116.253 165.194 116.502C164.74 116.751 164.514 117.103 164.514 117.556C164.514 117.828 164.797 118.089 165.364 118.338C165.953 118.565 167.064 118.871 168.696 119.256C169.67 119.483 170.702 119.721 171.79 119.97C172.878 120.197 173.898 120.525 174.85 120.956C175.824 121.364 176.606 121.965 177.196 122.758C177.808 123.529 178.114 124.56 178.114 125.852C178.114 128.028 177.241 129.728 175.496 130.952C173.75 132.199 171.325 132.822 168.22 132.822ZM190.936 132.686C189.576 132.686 188.499 132.391 187.706 131.802C186.912 131.235 186.334 130.442 185.972 129.422C185.609 128.402 185.371 127.235 185.258 125.92C185.167 124.605 185.122 123.223 185.122 121.772C185.122 120.276 185.178 118.723 185.292 117.114C183.773 117.318 182.311 117.579 180.906 117.896L179.852 112.558C181.733 112.059 183.739 111.697 185.87 111.47C186.028 110.314 186.198 109.101 186.38 107.832C186.561 106.54 186.765 105.18 186.992 103.752L192.84 104.262C192.568 105.441 192.33 106.619 192.126 107.798C191.922 108.954 191.74 110.076 191.582 111.164C192.851 111.164 194.041 111.198 195.152 111.266C196.285 111.311 197.328 111.402 198.28 111.538L197.6 116.876C196.806 116.785 195.979 116.729 195.118 116.706C194.279 116.661 193.429 116.638 192.568 116.638C192.046 116.638 191.525 116.649 191.004 116.672C190.868 118.327 190.777 119.743 190.732 120.922C190.709 122.101 190.698 122.939 190.698 123.438C190.698 124.685 190.766 125.58 190.902 126.124C191.06 126.668 191.31 126.94 191.65 126.94C192.035 126.94 192.466 126.815 192.942 126.566C193.418 126.294 193.882 125.931 194.336 125.478C194.812 125.025 195.208 124.537 195.526 124.016L198.144 129.49C195.9 131.621 193.497 132.686 190.936 132.686ZM210.959 132.72C208.783 132.72 206.867 132.289 205.213 131.428C203.581 130.589 202.3 129.411 201.371 127.892C200.464 126.373 200.011 124.617 200.011 122.622C200.011 121.421 200.215 120.163 200.623 118.848C201.031 117.511 201.688 116.264 202.595 115.108C203.501 113.952 204.691 113.011 206.165 112.286C207.661 111.561 209.474 111.198 211.605 111.198C213.146 111.198 214.438 111.368 215.481 111.708C216.546 112.048 217.407 112.49 218.065 113.034C218.745 113.578 219.255 114.156 219.595 114.768C219.957 115.38 220.195 115.969 220.309 116.536C220.445 117.08 220.513 117.533 220.513 117.896C220.513 120.095 219.583 121.795 217.725 122.996C215.889 124.175 213.282 124.764 209.905 124.764C209.134 124.764 208.397 124.73 207.695 124.662C207.015 124.594 206.38 124.515 205.791 124.424C206.221 125.557 206.935 126.396 207.933 126.94C208.93 127.461 209.961 127.722 211.027 127.722C212.568 127.722 213.928 127.45 215.107 126.906C216.285 126.339 217.396 125.478 218.439 124.322L221.465 128.674C220.739 129.263 219.923 129.875 219.017 130.51C218.133 131.145 217.045 131.666 215.753 132.074C214.461 132.505 212.863 132.72 210.959 132.72ZM211.707 116.298C210.369 116.298 209.191 116.638 208.171 117.318C207.151 117.998 206.403 118.893 205.927 120.004C206.493 120.095 207.049 120.174 207.593 120.242C208.159 120.287 208.715 120.31 209.259 120.31C209.757 120.31 210.324 120.265 210.959 120.174C211.616 120.083 212.251 119.947 212.863 119.766C213.497 119.585 214.019 119.358 214.427 119.086C214.835 118.791 215.039 118.451 215.039 118.066C215.039 117.885 214.948 117.658 214.767 117.386C214.585 117.114 214.257 116.865 213.781 116.638C213.305 116.411 212.613 116.298 211.707 116.298ZM227.363 132.754C226.501 132.754 225.787 132.561 225.221 132.176C224.654 131.791 224.235 131.292 223.963 130.68C223.691 130.068 223.555 129.433 223.555 128.776C223.555 127.529 223.951 126.577 224.745 125.92C225.538 125.24 226.49 124.9 227.601 124.9C228.734 124.9 229.629 125.24 230.287 125.92C230.944 126.6 231.273 127.507 231.273 128.64C231.273 130.091 230.876 131.133 230.083 131.768C229.312 132.425 228.405 132.754 227.363 132.754Z" fill="white"/>
</g>
</g>
<defs>
<filter id="filter0_d_8_27" x="-2" y="0" width="351" height="182.4" filterUnits="userSpaceOnUse" color-interpolation-filters="sRGB">
<feFlood flood-opacity="0" result="BackgroundImageFix"/>
<feColorMatrix in="SourceAlpha" type="matrix" values="0 0 0 0 0 0 0 0 0 0 0 0 0 0 0 0 0 0 127 0" result="hardAlpha"/>
<feOffset dx="2" dy="4"/>
<feGaussianBlur stdDeviation="2"/>
<feComposite in2="hardAlpha" operator="out"/>
<feColorMatrix type="matrix" values="0 0 0 0 0 0 0 0 0 0 0 0 0 0 0 0 0 0 0.25 0"/>
<feBlend mode="normal" in2="BackgroundImageFix" result="effect1_dropShadow_8_27"/>
<feBlend mode="normal" in="SourceGraphic" in2="effect1_dropShadow_8_27" result="shape"/>
</filter>
<filter id="filter1_d_8_27" x="47.1562" y="50.876" width="248.433" height="89.946" filterUnits="userSpaceOnUse" color-interpolation-filters="sRGB">
<feFlood flood-opacity="0" result="BackgroundImageFix"/>
<feColorMatrix in="SourceAlpha" type="matrix" values="0 0 0 0 0 0 0 0 0 0 0 0 0 0 0 0 0 0 127 0" result="hardAlpha"/>
<feOffset dy="4"/>
<feGaussianBlur stdDeviation="2"/>
<feComposite in2="hardAlpha" operator="out"/>
<feColorMatrix type="matrix" values="0 0 0 0 0 0 0 0 0 0 0 0 0 0 0 0 0 0 0.25 0"/>
<feBlend mode="normal" in2="BackgroundImageFix" result="effect1_dropShadow_8_27"/>
<feBlend mode="normal" in="SourceGraphic" in2="effect1_dropShadow_8_27" result="shape"/>
</filter>
<clipPath id="clip0_8_27">
<rect width="343" height="218" fill="white"/>
</clipPath>
</defs>
</svg>
