<svg width="278" height="282" viewBox="0 0 278 282" fill="none" xmlns="http://www.w3.org/2000/svg">
<g filter="url(#filter0_d_12_58)">
<path d="M135 270C209.558 270 270 209.558 270 135C270 60.4416 209.558 0 135 0C60.4416 0 0 60.4416 0 135C0 209.558 60.4416 270 135 270Z" fill="#FFDD67"/>
<path d="M173.7 199.8C149.4 188.55 120.6 188.55 96.3002 199.8C90.4502 202.5 97.6502 218.7 103.95 215.55C120.15 207.9 144 205.2 166.5 215.55C172.35 218.25 180 202.95 173.7 199.8Z" fill="#664E27"/>
<path d="M234 130.5C234 153 216 171 193.5 171C171 171 153 153 153 130.5C153 108 171 90 193.5 90C216 90 234 108 234 130.5Z" fill="white"/>
<path d="M193.5 157.5C208.412 157.5 220.5 145.412 220.5 130.5C220.5 115.588 208.412 103.5 193.5 103.5C178.588 103.5 166.5 115.588 166.5 130.5C166.5 145.412 178.588 157.5 193.5 157.5Z" fill="#664E27"/>
<path d="M200.7 165.15C207.659 165.15 213.3 158.703 213.3 150.75C213.3 142.797 207.659 136.35 200.7 136.35C193.741 136.35 188.1 142.797 188.1 150.75C188.1 158.703 193.741 165.15 200.7 165.15Z" fill="white"/>
<path d="M183.6 139.05C187.576 139.05 190.8 135.222 190.8 130.5C190.8 125.778 187.576 121.95 183.6 121.95C179.623 121.95 176.4 125.778 176.4 130.5C176.4 135.222 179.623 139.05 183.6 139.05Z" fill="white"/>
<path d="M117 130.5C117 153 99 171 76.5 171C54 171 36 153 36 130.5C36 108 54 90 76.5 90C99 90 117 108 117 130.5Z" fill="white"/>
<path d="M76.5 157.5C91.4117 157.5 103.5 145.412 103.5 130.5C103.5 115.588 91.4117 103.5 76.5 103.5C61.5883 103.5 49.5 115.588 49.5 130.5C49.5 145.412 61.5883 157.5 76.5 157.5Z" fill="#664E27"/>
<path d="M83.6997 165.15C90.6585 165.15 96.2997 158.703 96.2997 150.75C96.2997 142.797 90.6585 136.35 83.6997 136.35C76.7409 136.35 71.0997 142.797 71.0997 150.75C71.0997 158.703 76.7409 165.15 83.6997 165.15Z" fill="white"/>
<path d="M66.5997 139.05C70.5761 139.05 73.7997 135.222 73.7997 130.5C73.7997 125.778 70.5761 121.95 66.5997 121.95C62.6232 121.95 59.3997 125.778 59.3997 130.5C59.3997 135.222 62.6232 139.05 66.5997 139.05Z" fill="white"/>
<path d="M202.5 153C179.55 183.6 166.5 211.5 166.5 234.45C166.5 254.25 182.7 270 202.5 270C222.3 270 238.5 254.25 238.5 234.45C238.5 211.5 225 183.15 202.5 153Z" fill="#65B1EF"/>
<path d="M230.4 84.15C216 72 196.65 66.6 177.75 70.2C175.05 70.65 172.8 61.2 175.95 60.3C197.55 56.25 220.05 62.55 236.7 76.5C239.4 78.75 232.2 85.95 230.4 84.15ZM92.2497 69.3C73.3497 66.15 53.9997 71.1 39.5997 83.25C37.7997 85.05 30.5997 77.85 33.2997 75.6C49.9497 61.2 72.4497 55.35 94.0497 59.4C97.1997 60.3 94.9497 69.75 92.2497 69.3Z" fill="#917524"/>
</g>
<defs>
<filter id="filter0_d_12_58" x="0" y="0" width="278" height="282" filterUnits="userSpaceOnUse" color-interpolation-filters="sRGB">
<feFlood flood-opacity="0" result="BackgroundImageFix"/>
<feColorMatrix in="SourceAlpha" type="matrix" values="0 0 0 0 0 0 0 0 0 0 0 0 0 0 0 0 0 0 127 0" result="hardAlpha"/>
<feOffset dx="4" dy="8"/>
<feGaussianBlur stdDeviation="2"/>
<feComposite in2="hardAlpha" operator="out"/>
<feColorMatrix type="matrix" values="0 0 0 0 0 0 0 0 0 0 0 0 0 0 0 0 0 0 0.25 0"/>
<feBlend mode="normal" in2="BackgroundImageFix" result="effect1_dropShadow_12_58"/>
<feBlend mode="normal" in="SourceGraphic" in2="effect1_dropShadow_12_58" result="shape"/>
</filter>
</defs>
</svg>
