<svg width="278" height="282" viewBox="0 0 278 282" fill="none" xmlns="http://www.w3.org/2000/svg">
<g filter="url(#filter0_d_12_98)">
<path d="M135 270C209.558 270 270 209.558 270 135C270 60.4416 209.558 0 135 0C60.4416 0 0 60.4416 0 135C0 209.558 60.4416 270 135 270Z" fill="#FFDD67"/>
<path d="M135 225.45C152.397 225.45 166.5 211.347 166.5 193.95C166.5 176.553 152.397 162.45 135 162.45C117.603 162.45 103.5 176.553 103.5 193.95C103.5 211.347 117.603 225.45 135 225.45Z" fill="#664E27"/>
<path d="M81.9009 123.75C93.0847 123.75 102.151 114.684 102.151 103.5C102.151 92.3162 93.0847 83.25 81.9009 83.25C70.7171 83.25 61.6509 92.3162 61.6509 103.5C61.6509 114.684 70.7171 123.75 81.9009 123.75Z" fill="#664E27"/>
<path d="M183.151 123.75C194.335 123.75 203.401 114.684 203.401 103.5C203.401 92.3162 194.335 83.25 183.151 83.25C171.967 83.25 162.901 92.3162 162.901 103.5C162.901 114.684 171.967 123.75 183.151 123.75Z" fill="#664E27"/>
</g>
<defs>
<filter id="filter0_d_12_98" x="0" y="0" width="278" height="282" filterUnits="userSpaceOnUse" color-interpolation-filters="sRGB">
<feFlood flood-opacity="0" result="BackgroundImageFix"/>
<feColorMatrix in="SourceAlpha" type="matrix" values="0 0 0 0 0 0 0 0 0 0 0 0 0 0 0 0 0 0 127 0" result="hardAlpha"/>
<feOffset dx="4" dy="8"/>
<feGaussianBlur stdDeviation="2"/>
<feComposite in2="hardAlpha" operator="out"/>
<feColorMatrix type="matrix" values="0 0 0 0 0 0 0 0 0 0 0 0 0 0 0 0 0 0 0.25 0"/>
<feBlend mode="normal" in2="BackgroundImageFix" result="effect1_dropShadow_12_98"/>
<feBlend mode="normal" in="SourceGraphic" in2="effect1_dropShadow_12_98" result="shape"/>
</filter>
</defs>
</svg>
