<svg width="343" height="218" viewBox="0 0 343 218" fill="none" xmlns="http://www.w3.org/2000/svg">
<g clip-path="url(#clip0_12_87)">
<g filter="url(#filter0_d_12_87)">
<path d="M308.7 0H34.3C15.3566 0 0 9.76019 0 21.8V152.6C0 164.64 15.3566 174.4 34.3 174.4H308.7C327.643 174.4 343 164.64 343 152.6V21.8C343 9.76019 327.643 0 308.7 0Z" fill="#2F88FF"/>
</g>
<path d="M262.9 152.6H160V218L262.9 152.6Z" fill="#2F88FF"/>
<g filter="url(#filter1_d_12_87)">
<path d="M64.6542 83.72C62.7049 83.72 60.8009 82.0087 58.9422 78.586C57.4235 75.7753 56.0409 72.3187 54.7942 68.216C53.5702 64.1133 52.3575 59.4327 51.1562 54.174L57.3102 53.358C57.9449 56.3953 58.6362 59.3193 59.3842 62.13C60.1549 64.918 60.9369 67.4453 61.7302 69.712C62.5462 71.956 63.3282 73.792 64.0762 75.22C64.2575 75.5827 64.4275 75.8887 64.5862 76.138C64.7675 76.3647 64.8809 76.478 64.9262 76.478C65.0169 76.478 65.1302 76.376 65.2662 76.172C65.4249 75.968 65.6402 75.6053 65.9122 75.084C66.6829 73.7013 67.5102 71.8993 68.3942 69.678C69.3009 67.4567 70.2189 64.9407 71.1482 62.13C72.0775 59.3193 72.9502 56.3613 73.7662 53.256L79.8182 54.378C78.7982 57.982 77.7555 61.3253 76.6902 64.408C75.6249 67.468 74.5822 70.1993 73.5622 72.602C72.5422 74.982 71.6015 76.9767 70.7402 78.586C68.9042 82.0087 66.8755 83.72 64.6542 83.72ZM92.3198 83.788C90.5065 83.788 88.9198 83.4933 87.5598 82.904C86.2225 82.3147 85.1118 81.51 84.2278 80.49C83.3438 79.4473 82.6865 78.2573 82.2558 76.92C81.8252 75.5827 81.6098 74.1773 81.6098 72.704C81.6098 71.208 81.8705 69.8253 82.3918 68.556C82.9358 67.264 83.6725 66.142 84.6018 65.19C85.5538 64.238 86.6645 63.5013 87.9338 62.98C89.2032 62.436 90.5858 62.164 92.0818 62.164C93.6458 62.164 95.0965 62.436 96.4338 62.98C97.7712 63.524 98.9385 64.2833 99.9358 65.258C100.933 66.2327 101.704 67.3773 102.248 68.692C102.815 70.0067 103.098 71.4347 103.098 72.976C103.098 76.3987 102.157 79.062 100.276 80.966C98.3945 82.8473 95.7425 83.788 92.3198 83.788ZM92.2858 78.28C93.9405 78.28 95.1985 77.8153 96.0598 76.886C96.9438 75.9567 97.3858 74.6193 97.3858 72.874C97.3858 71.31 96.9098 70.052 95.9578 69.1C95.0058 68.148 93.7592 67.672 92.2178 67.672C91.2885 67.672 90.4385 67.9213 89.6678 68.42C88.8972 68.896 88.2738 69.542 87.7978 70.358C87.3445 71.1513 87.1178 72.0353 87.1178 73.01C87.1178 73.8713 87.2878 74.71 87.6278 75.526C87.9905 76.342 88.5572 77.0107 89.3278 77.532C90.0985 78.0307 91.0845 78.28 92.2858 78.28ZM115.759 83.754C113.855 83.754 112.098 83.3573 110.489 82.564C108.88 81.7707 107.588 80.6373 106.613 79.164C105.638 77.668 105.151 75.8887 105.151 73.826C105.151 71.514 105.604 69.4853 106.511 67.74C107.418 65.9947 108.687 64.646 110.319 63.694C111.951 62.7193 113.855 62.232 116.031 62.232C118.116 62.232 119.884 62.6627 121.335 63.524C122.786 64.3627 124.078 65.7 125.211 67.536L120.485 70.8C119.85 69.78 119.204 69.0093 118.547 68.488C117.89 67.944 116.994 67.672 115.861 67.672C114.32 67.672 113.073 68.216 112.121 69.304C111.169 70.3693 110.693 71.7973 110.693 73.588C110.693 74.6307 110.942 75.4807 111.441 76.138C111.962 76.7953 112.597 77.2827 113.345 77.6C114.093 77.9173 114.796 78.076 115.453 78.076C116.133 78.076 116.79 77.9967 117.425 77.838C118.06 77.6567 118.66 77.2713 119.227 76.682C119.794 76.0927 120.304 75.1973 120.757 73.996L125.857 76.716C125.177 77.9627 124.418 79.1187 123.579 80.184C122.74 81.2493 121.698 82.1107 120.451 82.768C119.227 83.4253 117.663 83.754 115.759 83.754ZM138.377 83.72C136.201 83.72 134.285 83.2893 132.631 82.428C130.999 81.5893 129.718 80.4107 128.789 78.892C127.882 77.3733 127.429 75.6167 127.429 73.622C127.429 72.4207 127.633 71.1627 128.041 69.848C128.449 68.5107 129.106 67.264 130.013 66.108C130.919 64.952 132.109 64.0113 133.583 63.286C135.079 62.5607 136.892 62.198 139.023 62.198C140.564 62.198 141.856 62.368 142.899 62.708C143.964 63.048 144.825 63.49 145.483 64.034C146.163 64.578 146.673 65.156 147.013 65.768C147.375 66.38 147.613 66.9693 147.727 67.536C147.863 68.08 147.931 68.5333 147.931 68.896C147.931 71.0947 147.001 72.7947 145.143 73.996C143.307 75.1747 140.7 75.764 137.323 75.764C136.552 75.764 135.815 75.73 135.113 75.662C134.433 75.594 133.798 75.5147 133.209 75.424C133.639 76.5573 134.353 77.396 135.351 77.94C136.348 78.4613 137.379 78.722 138.445 78.722C139.986 78.722 141.346 78.45 142.525 77.906C143.703 77.3393 144.814 76.478 145.857 75.322L148.883 79.674C148.157 80.2633 147.341 80.8753 146.435 81.51C145.551 82.1447 144.463 82.666 143.171 83.074C141.879 83.5047 140.281 83.72 138.377 83.72ZM139.125 67.298C137.787 67.298 136.609 67.638 135.589 68.318C134.569 68.998 133.821 69.8933 133.345 71.004C133.911 71.0947 134.467 71.174 135.011 71.242C135.577 71.2873 136.133 71.31 136.677 71.31C137.175 71.31 137.742 71.2647 138.377 71.174C139.034 71.0833 139.669 70.9473 140.281 70.766C140.915 70.5847 141.437 70.358 141.845 70.086C142.253 69.7913 142.457 69.4513 142.457 69.066C142.457 68.8847 142.366 68.658 142.185 68.386C142.003 68.114 141.675 67.8647 141.199 67.638C140.723 67.4113 140.031 67.298 139.125 67.298ZM131.747 57.642C132.177 57.234 132.665 56.7353 133.209 56.146C133.775 55.534 134.342 54.9107 134.909 54.276C135.475 53.6187 135.997 52.9953 136.473 52.406C136.971 51.794 137.391 51.284 137.731 50.876C138.32 51.5107 138.977 52.2133 139.703 52.984C140.451 53.732 141.221 54.4687 142.015 55.194C142.808 55.9193 143.556 56.5767 144.259 57.166L142.015 60.158C141.267 59.614 140.575 59.0587 139.941 58.492C139.306 57.9027 138.637 57.268 137.935 56.588C137.345 57.2907 136.79 57.914 136.269 58.458C135.77 58.9793 135.192 59.5573 134.535 60.192C134.489 60.1467 134.319 59.9993 134.025 59.75C133.753 59.478 133.435 59.1833 133.073 58.866C132.71 58.526 132.393 58.2427 132.121 58.016C131.871 57.7667 131.747 57.642 131.747 57.642ZM159.558 90.656C159.4 88.8427 159.286 87.018 159.218 85.182C159.15 83.346 159.116 81.2267 159.116 78.824C159.116 75.9 159.162 72.9873 159.252 70.086C159.343 67.1847 159.479 64.5327 159.66 62.13L165.508 62.3C165.44 62.8213 165.384 63.3767 165.338 63.966C166.154 63.422 167.027 63.0253 167.956 62.776C168.908 62.5267 169.872 62.402 170.846 62.402C172.093 62.402 173.306 62.606 174.484 63.014C175.663 63.3993 176.728 64.0227 177.68 64.884C178.632 65.7227 179.38 66.8107 179.924 68.148C180.491 69.4853 180.774 71.0947 180.774 72.976C180.774 74.8347 180.491 76.4553 179.924 77.838C179.358 79.2207 178.598 80.354 177.646 81.238C176.694 82.1447 175.629 82.8133 174.45 83.244C173.272 83.6973 172.059 83.924 170.812 83.924C168.523 83.924 166.506 83.244 164.76 81.884C164.806 83.3347 164.874 84.7287 164.964 86.066C165.055 87.426 165.168 88.8087 165.304 90.214L159.558 90.656ZM169.928 68.046C167.684 68.046 165.996 69.1453 164.862 71.344C164.794 72.704 164.749 74.0867 164.726 75.492C165.27 76.2173 165.973 76.852 166.834 77.396C167.696 77.9173 168.795 78.178 170.132 78.178C173.328 78.178 174.926 76.3533 174.926 72.704C174.926 71.7293 174.745 70.936 174.382 70.324C174.02 69.712 173.566 69.2473 173.022 68.93C172.478 68.59 171.923 68.3633 171.356 68.25C170.79 68.114 170.314 68.046 169.928 68.046ZM191.793 83.686C190.093 83.686 188.552 83.244 187.169 82.36C185.786 81.4987 184.687 80.3313 183.871 78.858C183.078 77.362 182.681 75.696 182.681 73.86C182.681 72.1373 182.998 70.5847 183.633 69.202C184.268 67.7967 185.129 66.5953 186.217 65.598C187.328 64.6007 188.586 63.8413 189.991 63.32C191.396 62.776 192.87 62.504 194.411 62.504C195.703 62.504 196.972 62.6853 198.219 63.048C198.31 62.572 198.389 62.096 198.457 61.62L204.271 62.606C204.112 63.0367 203.954 63.6827 203.795 64.544C203.636 65.4053 203.5 66.3687 203.387 67.434C203.296 68.4993 203.217 69.5647 203.149 70.63C203.081 71.6953 203.047 72.6587 203.047 73.52C203.047 74.2227 203.092 74.914 203.183 75.594C203.296 76.2513 203.523 76.7953 203.863 77.226C204.203 77.634 204.724 77.838 205.427 77.838H205.903L205.053 83.754C203.557 83.754 202.322 83.4933 201.347 82.972C200.372 82.4733 199.59 81.7933 199.001 80.932C198.026 82.02 196.916 82.7453 195.669 83.108C194.422 83.4933 193.13 83.686 191.793 83.686ZM188.257 74.54C188.37 75.628 188.812 76.5007 189.583 77.158C190.376 77.7927 191.374 78.11 192.575 78.11C193.731 78.11 194.694 77.804 195.465 77.192C196.236 76.5573 196.87 75.696 197.369 74.608C197.346 74.2453 197.335 73.8713 197.335 73.486C197.335 72.6927 197.358 71.8767 197.403 71.038C197.448 70.1993 197.505 69.372 197.573 68.556C196.621 68.1933 195.624 68.012 194.581 68.012C193.357 68.012 192.258 68.2613 191.283 68.76C190.331 69.236 189.583 69.9047 189.039 70.766C188.495 71.6273 188.223 72.6247 188.223 73.758C188.223 73.894 188.223 74.03 188.223 74.166C188.223 74.302 188.234 74.4267 188.257 74.54ZM207.892 83.652C207.983 81.7707 208.051 79.8893 208.096 78.008C208.142 76.1267 208.164 74.268 208.164 72.432C208.142 70.7547 208.108 69.1 208.062 67.468C208.04 65.8133 207.983 64.2153 207.892 62.674L213.604 62.504C213.627 63.3427 213.661 64.204 213.706 65.088C214.432 64.1813 215.27 63.456 216.222 62.912C217.197 62.3453 218.308 62.062 219.554 62.062C220.03 62.062 220.642 62.13 221.39 62.266C222.138 62.402 222.898 62.6627 223.668 63.048L223.022 68.794C222.456 68.454 221.844 68.216 221.186 68.08C220.552 67.9213 220.019 67.842 219.588 67.842C218.138 67.842 216.902 68.4993 215.882 69.814C214.885 71.106 214.205 72.908 213.842 75.22C213.842 76.8067 213.82 78.3253 213.774 79.776C213.752 81.204 213.695 82.496 213.604 83.652H207.892ZM235.33 83.72C233.154 83.72 231.238 83.2893 229.584 82.428C227.952 81.5893 226.671 80.4107 225.742 78.892C224.835 77.3733 224.382 75.6167 224.382 73.622C224.382 72.4207 224.586 71.1627 224.994 69.848C225.402 68.5107 226.059 67.264 226.966 66.108C227.872 64.952 229.062 64.0113 230.536 63.286C232.032 62.5607 233.845 62.198 235.976 62.198C237.517 62.198 238.809 62.368 239.852 62.708C240.917 63.048 241.778 63.49 242.436 64.034C243.116 64.578 243.626 65.156 243.966 65.768C244.328 66.38 244.566 66.9693 244.68 67.536C244.816 68.08 244.884 68.5333 244.884 68.896C244.884 71.0947 243.954 72.7947 242.096 73.996C240.26 75.1747 237.653 75.764 234.276 75.764C233.505 75.764 232.768 75.73 232.066 75.662C231.386 75.594 230.751 75.5147 230.162 75.424C230.592 76.5573 231.306 77.396 232.304 77.94C233.301 78.4613 234.332 78.722 235.398 78.722C236.939 78.722 238.299 78.45 239.478 77.906C240.656 77.3393 241.767 76.478 242.81 75.322L245.836 79.674C245.11 80.2633 244.294 80.8753 243.388 81.51C242.504 82.1447 241.416 82.666 240.124 83.074C238.832 83.5047 237.234 83.72 235.33 83.72ZM236.078 67.298C234.74 67.298 233.562 67.638 232.542 68.318C231.522 68.998 230.774 69.8933 230.298 71.004C230.864 71.0947 231.42 71.174 231.964 71.242C232.53 71.2873 233.086 71.31 233.63 71.31C234.128 71.31 234.695 71.2647 235.33 71.174C235.987 71.0833 236.622 70.9473 237.234 70.766C237.868 70.5847 238.39 70.358 238.798 70.086C239.206 69.7913 239.41 69.4513 239.41 69.066C239.41 68.8847 239.319 68.658 239.138 68.386C238.956 68.114 238.628 67.8647 238.152 67.638C237.676 67.4113 236.984 67.298 236.078 67.298ZM258.466 83.754C256.562 83.754 254.805 83.3573 253.196 82.564C251.587 81.7707 250.295 80.6373 249.32 79.164C248.345 77.668 247.858 75.8887 247.858 73.826C247.858 71.514 248.311 69.4853 249.218 67.74C250.125 65.9947 251.394 64.646 253.026 63.694C254.658 62.7193 256.562 62.232 258.738 62.232C260.823 62.232 262.591 62.6627 264.042 63.524C265.493 64.3627 266.785 65.7 267.918 67.536L263.192 70.8C262.557 69.78 261.911 69.0093 261.254 68.488C260.597 67.944 259.701 67.672 258.568 67.672C257.027 67.672 255.78 68.216 254.828 69.304C253.876 70.3693 253.4 71.7973 253.4 73.588C253.4 74.6307 253.649 75.4807 254.148 76.138C254.669 76.7953 255.304 77.2827 256.052 77.6C256.8 77.9173 257.503 78.076 258.16 78.076C258.84 78.076 259.497 77.9967 260.132 77.838C260.767 77.6567 261.367 77.2713 261.934 76.682C262.501 76.0927 263.011 75.1973 263.464 73.996L268.564 76.716C267.884 77.9627 267.125 79.1187 266.286 80.184C265.447 81.2493 264.405 82.1107 263.158 82.768C261.934 83.4253 260.37 83.754 258.466 83.754ZM281.084 83.72C278.908 83.72 276.992 83.2893 275.338 82.428C273.706 81.5893 272.425 80.4107 271.496 78.892C270.589 77.3733 270.136 75.6167 270.136 73.622C270.136 72.4207 270.34 71.1627 270.748 69.848C271.156 68.5107 271.813 67.264 272.72 66.108C273.626 64.952 274.816 64.0113 276.29 63.286C277.786 62.5607 279.599 62.198 281.73 62.198C283.271 62.198 284.563 62.368 285.606 62.708C286.671 63.048 287.532 63.49 288.19 64.034C288.87 64.578 289.38 65.156 289.72 65.768C290.082 66.38 290.32 66.9693 290.434 67.536C290.57 68.08 290.638 68.5333 290.638 68.896C290.638 71.0947 289.708 72.7947 287.85 73.996C286.014 75.1747 283.407 75.764 280.03 75.764C279.259 75.764 278.522 75.73 277.82 75.662C277.14 75.594 276.505 75.5147 275.916 75.424C276.346 76.5573 277.06 77.396 278.058 77.94C279.055 78.4613 280.086 78.722 281.152 78.722C282.693 78.722 284.053 78.45 285.232 77.906C286.41 77.3393 287.521 76.478 288.564 75.322L291.59 79.674C290.864 80.2633 290.048 80.8753 289.142 81.51C288.258 82.1447 287.17 82.666 285.878 83.074C284.586 83.5047 282.988 83.72 281.084 83.72ZM281.832 67.298C280.494 67.298 279.316 67.638 278.296 68.318C277.276 68.998 276.528 69.8933 276.052 71.004C276.618 71.0947 277.174 71.174 277.718 71.242C278.284 71.2873 278.84 71.31 279.384 71.31C279.882 71.31 280.449 71.2647 281.084 71.174C281.741 71.0833 282.376 70.9473 282.988 70.766C283.622 70.5847 284.144 70.358 284.552 70.086C284.96 69.7913 285.164 69.4513 285.164 69.066C285.164 68.8847 285.073 68.658 284.892 68.386C284.71 68.114 284.382 67.8647 283.906 67.638C283.43 67.4113 282.738 67.298 281.832 67.298ZM89.877 132.822C88.3357 132.822 86.9077 132.641 85.593 132.278C84.2784 131.915 83.0884 131.451 82.023 130.884C80.9577 130.317 80.0057 129.717 79.167 129.082L82.227 124.152C83.179 125.036 84.097 125.716 84.981 126.192C85.865 126.668 86.783 126.997 87.735 127.178C88.7097 127.359 89.7637 127.45 90.897 127.45C91.8717 127.45 92.6537 127.325 93.243 127.076C93.8324 126.804 94.127 126.464 94.127 126.056C94.127 125.716 93.8437 125.455 93.277 125.274C92.7104 125.07 91.985 124.9 91.101 124.764C90.217 124.605 89.2877 124.413 88.313 124.186C86.9304 123.823 85.6384 123.404 84.437 122.928C83.2357 122.452 82.261 121.806 81.513 120.99C80.7877 120.174 80.425 119.086 80.425 117.726C80.425 116.638 80.6857 115.686 81.207 114.87C81.7284 114.031 82.4197 113.34 83.281 112.796C84.165 112.229 85.1624 111.81 86.273 111.538C87.3837 111.266 88.5284 111.13 89.707 111.13C91.747 111.13 93.5037 111.379 94.977 111.878C96.473 112.354 97.901 112.989 99.261 113.782L96.167 118.474C95.487 117.998 94.705 117.59 93.821 117.25C92.9597 116.887 92.087 116.615 91.203 116.434C90.3417 116.23 89.537 116.128 88.789 116.128C87.973 116.128 87.327 116.253 86.851 116.502C86.3977 116.751 86.171 117.103 86.171 117.556C86.171 117.828 86.4544 118.089 87.021 118.338C87.6104 118.565 88.721 118.871 90.353 119.256C91.3277 119.483 92.359 119.721 93.447 119.97C94.535 120.197 95.555 120.525 96.507 120.956C97.4817 121.364 98.2637 121.965 98.853 122.758C99.465 123.529 99.771 124.56 99.771 125.852C99.771 128.028 98.8984 129.728 97.153 130.952C95.4077 132.199 92.9824 132.822 89.877 132.822ZM109.941 132.788C108.49 132.788 107.289 132.527 106.337 132.006C105.407 131.507 104.659 130.816 104.093 129.932C103.549 129.048 103.141 128.062 102.869 126.974C102.619 125.863 102.449 124.719 102.359 123.54C102.291 122.339 102.257 121.183 102.257 120.072C102.257 118.803 102.291 117.511 102.359 116.196C102.449 114.881 102.54 113.442 102.631 111.878L108.853 111.504C108.785 111.98 108.683 112.694 108.547 113.646C108.411 114.598 108.286 115.686 108.173 116.91C108.059 118.134 108.003 119.415 108.003 120.752C108.003 122.951 108.195 124.583 108.581 125.648C108.966 126.691 109.544 127.212 110.315 127.212C111.856 127.212 112.989 126.09 113.715 123.846C114.44 121.602 114.803 118.055 114.803 113.204V111.64L117.693 111.572L121.195 111.504C120.877 113.635 120.639 115.595 120.481 117.386C120.322 119.177 120.22 120.684 120.175 121.908C120.129 123.109 120.107 123.914 120.107 124.322C120.107 125.365 120.197 126.113 120.379 126.566C120.56 126.997 120.877 127.212 121.331 127.212C121.557 127.212 121.807 127.167 122.079 127.076C122.351 126.985 122.668 126.827 123.031 126.6L122.793 132.448C121.931 132.584 121.183 132.652 120.549 132.652C119.461 132.652 118.565 132.448 117.863 132.04C117.183 131.632 116.639 131.088 116.231 130.408C115.528 131.156 114.655 131.734 113.613 132.142C112.593 132.573 111.369 132.788 109.941 132.788ZM125.698 132.652C125.789 130.771 125.857 128.889 125.902 127.008C125.947 125.127 125.97 123.268 125.97 121.432C125.947 119.755 125.913 118.1 125.868 116.468C125.845 114.813 125.789 113.215 125.698 111.674L131.41 111.504C131.433 112.343 131.467 113.204 131.512 114.088C132.237 113.181 133.076 112.456 134.028 111.912C135.003 111.345 136.113 111.062 137.36 111.062C137.836 111.062 138.448 111.13 139.196 111.266C139.944 111.402 140.703 111.663 141.474 112.048L140.828 117.794C140.261 117.454 139.649 117.216 138.992 117.08C138.357 116.921 137.825 116.842 137.394 116.842C135.943 116.842 134.708 117.499 133.688 118.814C132.691 120.106 132.011 121.908 131.648 124.22C131.648 125.807 131.625 127.325 131.58 128.776C131.557 130.204 131.501 131.496 131.41 132.652H125.698ZM143.139 139.656C142.981 137.843 142.867 136.018 142.799 134.182C142.731 132.346 142.697 130.227 142.697 127.824C142.697 124.9 142.743 121.987 142.833 119.086C142.924 116.185 143.06 113.533 143.241 111.13L149.089 111.3C149.021 111.821 148.965 112.377 148.919 112.966C149.735 112.422 150.608 112.025 151.537 111.776C152.489 111.527 153.453 111.402 154.427 111.402C155.674 111.402 156.887 111.606 158.065 112.014C159.244 112.399 160.309 113.023 161.261 113.884C162.213 114.723 162.961 115.811 163.505 117.148C164.072 118.485 164.355 120.095 164.355 121.976C164.355 123.835 164.072 125.455 163.505 126.838C162.939 128.221 162.179 129.354 161.227 130.238C160.275 131.145 159.21 131.813 158.031 132.244C156.853 132.697 155.64 132.924 154.393 132.924C152.104 132.924 150.087 132.244 148.341 130.884C148.387 132.335 148.455 133.729 148.545 135.066C148.636 136.426 148.749 137.809 148.885 139.214L143.139 139.656ZM153.509 117.046C151.265 117.046 149.577 118.145 148.443 120.344C148.375 121.704 148.33 123.087 148.307 124.492C148.851 125.217 149.554 125.852 150.415 126.396C151.277 126.917 152.376 127.178 153.713 127.178C156.909 127.178 158.507 125.353 158.507 121.704C158.507 120.729 158.326 119.936 157.963 119.324C157.601 118.712 157.147 118.247 156.603 117.93C156.059 117.59 155.504 117.363 154.937 117.25C154.371 117.114 153.895 117.046 153.509 117.046ZM166.704 132.652C166.795 130.771 166.863 128.889 166.908 127.008C166.953 125.127 166.976 123.268 166.976 121.432C166.953 119.755 166.919 118.1 166.874 116.468C166.851 114.813 166.795 113.215 166.704 111.674L172.416 111.504C172.439 112.343 172.473 113.204 172.518 114.088C173.243 113.181 174.082 112.456 175.034 111.912C176.009 111.345 177.119 111.062 178.366 111.062C178.842 111.062 179.454 111.13 180.202 111.266C180.95 111.402 181.709 111.663 182.48 112.048L181.834 117.794C181.267 117.454 180.655 117.216 179.998 117.08C179.363 116.921 178.831 116.842 178.4 116.842C176.949 116.842 175.714 117.499 174.694 118.814C173.697 120.106 173.017 121.908 172.654 124.22C172.654 125.807 172.631 127.325 172.586 128.776C172.563 130.204 172.507 131.496 172.416 132.652H166.704ZM194.141 132.72C191.965 132.72 190.05 132.289 188.395 131.428C186.763 130.589 185.483 129.411 184.553 127.892C183.647 126.373 183.193 124.617 183.193 122.622C183.193 121.421 183.397 120.163 183.805 118.848C184.213 117.511 184.871 116.264 185.777 115.108C186.684 113.952 187.874 113.011 189.347 112.286C190.843 111.561 192.657 111.198 194.787 111.198C196.329 111.198 197.621 111.368 198.663 111.708C199.729 112.048 200.59 112.49 201.247 113.034C201.927 113.578 202.437 114.156 202.777 114.768C203.14 115.38 203.378 115.969 203.491 116.536C203.627 117.08 203.695 117.533 203.695 117.896C203.695 120.095 202.766 121.795 200.907 122.996C199.071 124.175 196.465 124.764 193.087 124.764C192.317 124.764 191.58 124.73 190.877 124.662C190.197 124.594 189.563 124.515 188.973 124.424C189.404 125.557 190.118 126.396 191.115 126.94C192.113 127.461 193.144 127.722 194.209 127.722C195.751 127.722 197.111 127.45 198.289 126.906C199.468 126.339 200.579 125.478 201.621 124.322L204.647 128.674C203.922 129.263 203.106 129.875 202.199 130.51C201.315 131.145 200.227 131.666 198.935 132.074C197.643 132.505 196.045 132.72 194.141 132.72ZM194.889 116.298C193.552 116.298 192.373 116.638 191.353 117.318C190.333 117.998 189.585 118.893 189.109 120.004C189.676 120.095 190.231 120.174 190.775 120.242C191.342 120.287 191.897 120.31 192.441 120.31C192.94 120.31 193.507 120.265 194.141 120.174C194.799 120.083 195.433 119.947 196.045 119.766C196.68 119.585 197.201 119.358 197.609 119.086C198.017 118.791 198.221 118.451 198.221 118.066C198.221 117.885 198.131 117.658 197.949 117.386C197.768 117.114 197.439 116.865 196.963 116.638C196.487 116.411 195.796 116.298 194.889 116.298ZM217.277 132.822C215.736 132.822 214.308 132.641 212.993 132.278C211.679 131.915 210.489 131.451 209.423 130.884C208.358 130.317 207.406 129.717 206.567 129.082L209.627 124.152C210.579 125.036 211.497 125.716 212.381 126.192C213.265 126.668 214.183 126.997 215.135 127.178C216.11 127.359 217.164 127.45 218.297 127.45C219.272 127.45 220.054 127.325 220.643 127.076C221.233 126.804 221.527 126.464 221.527 126.056C221.527 125.716 221.244 125.455 220.677 125.274C220.111 125.07 219.385 124.9 218.501 124.764C217.617 124.605 216.688 124.413 215.713 124.186C214.331 123.823 213.039 123.404 211.837 122.928C210.636 122.452 209.661 121.806 208.913 120.99C208.188 120.174 207.825 119.086 207.825 117.726C207.825 116.638 208.086 115.686 208.607 114.87C209.129 114.031 209.82 113.34 210.681 112.796C211.565 112.229 212.563 111.81 213.673 111.538C214.784 111.266 215.929 111.13 217.107 111.13C219.147 111.13 220.904 111.379 222.377 111.878C223.873 112.354 225.301 112.989 226.661 113.782L223.567 118.474C222.887 117.998 222.105 117.59 221.221 117.25C220.36 116.887 219.487 116.615 218.603 116.434C217.742 116.23 216.937 116.128 216.189 116.128C215.373 116.128 214.727 116.253 214.251 116.502C213.798 116.751 213.571 117.103 213.571 117.556C213.571 117.828 213.855 118.089 214.421 118.338C215.011 118.565 216.121 118.871 217.753 119.256C218.728 119.483 219.759 119.721 220.847 119.97C221.935 120.197 222.955 120.525 223.907 120.956C224.882 121.364 225.664 121.965 226.253 122.758C226.865 123.529 227.171 124.56 227.171 125.852C227.171 128.028 226.299 129.728 224.553 130.952C222.808 132.199 220.383 132.822 217.277 132.822ZM239.891 132.788C238.078 132.788 236.491 132.493 235.131 131.904C233.794 131.315 232.683 130.51 231.799 129.49C230.915 128.447 230.258 127.257 229.827 125.92C229.396 124.583 229.181 123.177 229.181 121.704C229.181 120.208 229.442 118.825 229.963 117.556C230.507 116.264 231.244 115.142 232.173 114.19C233.125 113.238 234.236 112.501 235.505 111.98C236.774 111.436 238.157 111.164 239.653 111.164C241.217 111.164 242.668 111.436 244.005 111.98C245.342 112.524 246.51 113.283 247.507 114.258C248.504 115.233 249.275 116.377 249.819 117.692C250.386 119.007 250.669 120.435 250.669 121.976C250.669 125.399 249.728 128.062 247.847 129.966C245.966 131.847 243.314 132.788 239.891 132.788ZM239.857 127.28C241.512 127.28 242.77 126.815 243.631 125.886C244.515 124.957 244.957 123.619 244.957 121.874C244.957 120.31 244.481 119.052 243.529 118.1C242.577 117.148 241.33 116.672 239.789 116.672C238.86 116.672 238.01 116.921 237.239 117.42C236.468 117.896 235.845 118.542 235.369 119.358C234.916 120.151 234.689 121.035 234.689 122.01C234.689 122.871 234.859 123.71 235.199 124.526C235.562 125.342 236.128 126.011 236.899 126.532C237.67 127.031 238.656 127.28 239.857 127.28ZM256.224 102.222L261.596 102.494C261.528 103.333 261.449 104.398 261.358 105.69C261.29 106.959 261.222 108.365 261.154 109.906C261.086 111.425 261.018 112.966 260.95 114.53C260.882 116.094 260.825 117.59 260.78 119.018C260.757 120.423 260.746 121.659 260.746 122.724C260.746 123.019 260.746 123.302 260.746 123.574C260.746 123.846 260.757 124.084 260.78 124.288L255.442 124.152C255.419 123.767 255.408 123.336 255.408 122.86C255.408 122.361 255.408 121.817 255.408 121.228C255.408 119.369 255.431 117.341 255.476 115.142C255.544 112.943 255.635 110.733 255.748 108.512C255.884 106.268 256.043 104.171 256.224 102.222ZM257.958 132.822C257.074 132.822 256.326 132.505 255.714 131.87C255.125 131.258 254.83 130.499 254.83 129.592C254.83 128.685 255.136 127.926 255.748 127.314C256.383 126.702 257.153 126.396 258.06 126.396C258.944 126.396 259.681 126.713 260.27 127.348C260.882 127.983 261.188 128.776 261.188 129.728C261.188 130.657 260.893 131.405 260.304 131.972C259.715 132.539 258.933 132.822 257.958 132.822Z" fill="white"/>
</g>
</g>
<defs>
<filter id="filter0_d_12_87" x="-2" y="0" width="351" height="182.4" filterUnits="userSpaceOnUse" color-interpolation-filters="sRGB">
<feFlood flood-opacity="0" result="BackgroundImageFix"/>
<feColorMatrix in="SourceAlpha" type="matrix" values="0 0 0 0 0 0 0 0 0 0 0 0 0 0 0 0 0 0 127 0" result="hardAlpha"/>
<feOffset dx="2" dy="4"/>
<feGaussianBlur stdDeviation="2"/>
<feComposite in2="hardAlpha" operator="out"/>
<feColorMatrix type="matrix" values="0 0 0 0 0 0 0 0 0 0 0 0 0 0 0 0 0 0 0.25 0"/>
<feBlend mode="normal" in2="BackgroundImageFix" result="effect1_dropShadow_12_87"/>
<feBlend mode="normal" in="SourceGraphic" in2="effect1_dropShadow_12_87" result="shape"/>
</filter>
<filter id="filter1_d_12_87" x="47.1562" y="50.876" width="248.433" height="96.78" filterUnits="userSpaceOnUse" color-interpolation-filters="sRGB">
<feFlood flood-opacity="0" result="BackgroundImageFix"/>
<feColorMatrix in="SourceAlpha" type="matrix" values="0 0 0 0 0 0 0 0 0 0 0 0 0 0 0 0 0 0 127 0" result="hardAlpha"/>
<feOffset dy="4"/>
<feGaussianBlur stdDeviation="2"/>
<feComposite in2="hardAlpha" operator="out"/>
<feColorMatrix type="matrix" values="0 0 0 0 0 0 0 0 0 0 0 0 0 0 0 0 0 0 0.25 0"/>
<feBlend mode="normal" in2="BackgroundImageFix" result="effect1_dropShadow_12_87"/>
<feBlend mode="normal" in="SourceGraphic" in2="effect1_dropShadow_12_87" result="shape"/>
</filter>
<clipPath id="clip0_12_87">
<rect width="343" height="218" fill="white"/>
</clipPath>
</defs>
</svg>
